<svg width="135" height="128" viewBox="0 0 135 128" fill="none" xmlns="http://www.w3.org/2000/svg">
<rect x="133.651" y="-109.981" width="237" height="121" rx="9.5" transform="rotate(90 133.651 -109.981)" fill="#376FFF" stroke="#E5E5E5"/>
<g clip-path="url(#clip0)">
<path fill-rule="evenodd" clip-rule="evenodd" d="M42.7509 -61.835C42.7391 -63.4827 42.7274 -65.1302 42.7156 -66.7776C43.0138 -66.932 42.9033 -67.2248 42.9595 -67.4644C43.4224 -69.443 44.2368 -71.2483 45.6908 -72.7202C47.1091 -74.1556 48.852 -75.0106 50.8141 -75.4583C50.9408 -75.4872 51.0961 -75.4931 51.0767 -75.6888C52.7228 -75.7005 54.3689 -75.7123 56.0151 -75.7241C56.3877 -75.5282 56.7836 -75.3854 57.1871 -75.2725C59.8722 -74.5208 62.5567 -73.7667 65.2472 -73.0345C67.3679 -72.4572 69.532 -72.1029 71.728 -71.9972C72.891 -71.9414 74.0575 -72.0256 75.2163 -72.1786C76.3674 -72.3307 77.5049 -72.5461 78.6322 -72.8186C80.8211 -73.3482 82.9534 -74.0618 85.0926 -74.7535C86.4125 -75.1804 87.7419 -75.5766 89.0748 -75.9606C90.7209 -75.9724 92.3673 -75.9842 94.0132 -75.9959C94.0004 -75.9453 94.0178 -75.904 94.0484 -75.8634C94.2007 -75.662 94.4412 -75.6851 94.6508 -75.6271C97.1394 -74.9396 99.1619 -73.6069 100.523 -71.3996C101.245 -70.2283 101.812 -68.9863 101.974 -67.5994C101.996 -67.4153 102.095 -67.281 102.268 -67.2034C102.279 -65.5948 102.289 -63.9859 102.3 -62.3774C101.963 -62.2522 102.068 -61.9565 102.038 -61.7135C101.802 -59.766 101.567 -57.8181 101.332 -55.8706C101.067 -53.6856 100.803 -51.5003 100.54 -49.315C100.293 -47.2626 100.047 -45.21 99.8018 -43.1576C99.5538 -41.0861 99.304 -39.0148 99.0594 -36.9427C98.8113 -34.8423 98.5716 -32.7411 98.3232 -30.6409C98.0242 -28.1129 97.7227 -25.5851 97.417 -23.0581C97.1571 -20.9109 96.9012 -18.7635 96.6225 -16.6189C96.3164 -14.2647 96.0345 -11.9085 95.8357 -9.54312C95.5914 -6.63379 95.4292 -3.72006 95.3602 -0.80143C95.2988 1.80185 95.2815 4.40482 95.3276 7.00927C95.3827 10.1206 95.5409 13.2251 95.829 16.324C96.0459 18.6592 96.3083 20.989 96.6167 23.3138C96.9011 25.4579 97.2031 27.5994 97.4985 29.7421C97.8355 32.1878 98.1799 34.6329 98.51 37.0795C98.8154 39.3463 99.1041 41.6154 99.4042 43.883C99.6794 45.9611 99.9588 48.0386 100.238 50.1158C100.511 52.1453 100.785 54.175 101.062 56.2042C101.335 58.2143 101.612 60.224 101.887 62.2338C102.12 63.9305 102.365 65.6257 102.542 67.3298C102.68 68.653 102.863 69.9706 103.278 71.244C103.288 72.9107 103.298 74.5776 103.308 76.2445C103.116 76.3442 103.039 76.517 103.026 76.7157C103.01 76.9669 102.936 77.2041 102.867 77.4424C101.766 81.2218 99.3237 83.6535 95.4605 84.6592C95.3669 84.6835 95.2544 84.7015 95.2129 84.7929C95.1388 84.9559 95.0036 84.9341 94.8705 84.9351C93.3605 84.9459 91.8503 84.9545 90.3404 84.97C90.1143 84.9724 89.9021 84.9362 89.6873 84.8702C86.8751 84.0039 84.0595 83.1479 81.2489 82.2761C79.2543 81.6573 77.2219 81.2613 75.1275 81.2279C72.5178 81.186 69.958 81.5766 67.4436 82.2287C64.4438 83.0069 61.4837 83.9264 58.5143 84.8116C57.6173 85.0788 56.7272 85.2516 55.7845 85.2242C54.663 85.1916 53.5391 85.2302 52.4164 85.2391C52.217 85.2405 52.0159 85.2722 51.8916 85.0476C51.8401 84.9546 51.7108 84.9475 51.6057 84.9282C51.1954 84.8531 50.8016 84.7223 50.4135 84.5753C46.7999 83.2059 44.7492 80.5719 44.0346 76.8563C44.0028 76.6916 43.9693 76.5123 43.7411 76.4979C43.73 74.9462 43.7189 73.3943 43.7078 71.8427C43.9142 71.8346 43.9172 71.669 43.9336 71.5344C44.1373 69.8529 44.337 68.1712 44.5353 66.4892C44.8353 63.9419 45.1307 61.3945 45.4324 58.8475C45.715 56.4621 46.0051 54.0775 46.2888 51.6921C46.6075 49.0119 46.9211 46.3313 47.24 43.6514C47.5783 40.8101 47.918 37.9692 48.2614 35.1284C48.6127 32.2213 48.9513 29.3127 49.3285 26.4088C49.7922 22.8393 50.1875 19.2642 50.4104 15.6706C50.6156 12.3643 50.7116 9.05545 50.7173 5.74393C50.7244 1.86656 50.6215 -2.00781 50.2899 -5.87331C50.1297 -7.74221 49.9456 -9.60927 49.7155 -11.4707C49.4704 -13.4554 49.2074 -15.4383 48.9391 -17.42C48.6734 -19.3829 48.3879 -21.3432 48.1183 -23.3054C47.8161 -25.505 47.519 -27.7051 47.2252 -29.9056C46.9632 -31.8691 46.7107 -33.8337 46.4501 -35.7974C46.1773 -37.8561 45.9014 -39.9142 45.6238 -41.9722C45.3516 -43.9923 45.0773 -46.0123 44.8009 -48.0315C44.5259 -50.0412 44.2394 -52.0495 43.9725 -54.0602C43.7143 -56.0045 43.4872 -57.9529 43.22 -59.896C43.1291 -60.5535 43.0171 -61.2146 42.7509 -61.835Z" fill="#F44A40"/>
<path d="M73.5005 54.4672C74.5451 56.0362 75.3478 57.693 75.9076 59.4376C76.3033 59.0412 76.7491 58.6741 77.2444 58.338C77.7404 58.002 78.2736 57.709 78.8441 57.4585L78.8143 53.2839L82.5205 54.4766L82.5588 59.8334C82.4843 59.8586 82.4162 59.8841 82.3541 59.9087C82.2925 59.9339 82.2236 59.9594 82.1493 59.9841C80.7343 60.5853 79.5257 61.3023 78.5229 62.1343C77.5204 62.967 77.002 64.4174 76.9668 66.4863L73.2235 65.3309C73.1966 64.9863 73.1626 64.6357 73.1227 64.2785C73.0828 63.9221 73.0371 63.5713 72.9843 63.2264C72.6722 61.3572 72.112 59.5628 71.3024 57.8444C70.4937 56.1263 69.2511 54.7557 67.5754 53.7332C67.5003 53.6846 67.4194 53.636 67.3317 53.5872C67.2443 53.5386 67.1507 53.4904 67.0504 53.4414C66.9254 53.3684 66.7944 53.3018 66.6569 53.2411C66.52 53.1807 66.3886 53.1136 66.2634 53.0406C66.0891 52.968 65.9205 52.9139 65.7582 52.8781C65.5962 52.8423 65.4402 52.8248 65.2908 52.8259C65.0424 52.8524 64.831 52.94 64.6577 53.0891C64.4849 53.2381 64.3868 53.4974 64.3645 53.867C64.3192 54.4832 64.4368 55.2212 64.7165 56.0812C64.997 56.9414 65.4767 57.9358 66.1571 59.0635C67.6685 61.4911 69.5952 63.6387 71.9366 65.5059C74.2786 67.3734 76.7 69.1111 79.2013 70.7188C79.7771 71.0841 80.352 71.4436 80.9271 71.7965C81.5028 72.1496 82.078 72.5085 82.6529 72.8739L82.6825 77.0121C80.7571 75.8683 78.7634 74.7495 76.7013 73.6559C74.6392 72.5623 72.5593 71.6044 70.4618 70.7819C70.1122 70.6366 69.763 70.4977 69.413 70.3646C69.0636 70.2321 68.7144 70.1052 68.3645 69.9844C67.6156 69.7189 66.9293 69.496 66.3054 69.3157C65.6821 69.1355 65.1332 69.0347 64.6599 69.0133C64.5105 69.0144 64.4051 69.0463 64.3432 69.1081C64.2819 69.1705 64.2511 69.3118 64.2527 69.5338L64.2802 73.3753L60.5743 72.2196L60.5589 70.0769C60.5496 68.7716 60.7906 67.6368 61.2816 66.6727C61.7729 65.7086 62.965 65.2815 64.858 65.391C65.1568 65.3889 65.4623 65.4178 65.7739 65.4769C66.086 65.5364 66.4286 65.6142 66.8025 65.7096C66.4769 65.3672 66.1251 64.9883 65.7486 64.5718C65.3721 64.1562 64.9954 63.7033 64.6184 63.2129C63.9649 62.3556 63.3301 61.4302 62.7125 60.437C62.0954 59.4439 61.5961 58.4314 61.2155 57.3996C61.0376 56.8595 60.8902 56.3186 60.7743 55.7772C60.6583 55.2363 60.5984 54.707 60.5947 54.1898C60.5901 53.5496 60.6792 52.9331 60.8617 52.3406C61.0442 51.7482 61.358 51.2046 61.8026 50.7083C62.2469 50.1637 62.755 49.7779 63.3257 49.5521C63.8973 49.3263 64.4938 49.2112 65.116 49.2068C65.2654 49.2057 65.409 49.2108 65.5458 49.222C65.683 49.2336 65.8139 49.2512 65.9382 49.2745C66.5868 49.3685 67.2165 49.5368 67.8279 49.7782C68.4401 50.0202 69.0081 50.3117 69.5337 50.6527C71.1336 51.6271 72.4564 52.8985 73.5005 54.4672Z" fill="white"/>
<path d="M82.4534 39.8837L82.4791 43.4672C82.4819 43.8613 82.4227 44.2193 82.3 44.5399C82.1782 44.861 82.0185 45.1577 81.8208 45.43C82.0475 45.7978 82.2372 46.197 82.3896 46.6265C82.5421 47.0565 82.6443 47.4808 82.6975 47.8988C82.723 48.0464 82.7429 48.194 82.7569 48.3417C82.77 48.4894 82.7775 48.6371 82.7786 48.7849C82.784 49.5488 82.6145 50.2703 82.2712 50.95C81.9275 51.6299 81.3711 52.1698 80.602 52.5692C80.2798 52.7193 79.963 52.8324 79.6518 52.9085C79.3415 52.9846 79.0242 53.0238 78.7004 53.0261C78.0531 53.0307 77.4238 52.9125 76.8115 52.6702C76.2001 52.4287 75.6311 52.1122 75.1054 51.7218C73.4289 50.5024 72.2413 48.9778 71.5432 47.1477C70.8455 45.3182 70.4649 43.4181 70.4005 41.4477C70.4 41.3738 70.3994 41.2941 70.3988 41.2077C70.3982 41.1216 70.3975 41.0294 70.3968 40.9305L74.0943 40.904C74.0999 41.6926 74.1558 42.4736 74.2605 43.2487C74.3657 44.0238 74.5578 44.7678 74.8367 45.48C75.0653 46.1192 75.3814 46.72 75.7833 47.2835C76.1859 47.8476 76.6749 48.3363 77.2505 48.7508C77.3009 48.7752 77.363 48.8117 77.438 48.8603C77.5131 48.9095 77.601 48.9578 77.7005 49.0062C77.7756 49.0554 77.8506 49.0977 77.9255 49.1341C78.0005 49.1705 78.0884 49.2132 78.1879 49.2614C78.2628 49.2855 78.3506 49.3099 78.4499 49.3334C78.5497 49.3574 78.6369 49.369 78.7116 49.3684C78.8113 49.3677 78.9045 49.3301 78.991 49.2556C79.0781 49.1811 79.1202 49.058 79.119 48.8852C79.1121 47.9247 78.7838 47.2132 78.1326 46.7495C77.482 46.2866 76.7697 45.9223 75.9958 45.6564C75.8216 45.6088 75.659 45.5607 75.5092 45.5121C75.3595 45.464 75.2097 45.4159 75.06 45.3675L76.1929 41.8866L78.7758 42.6809L78.7475 38.7279L82.4534 39.8837Z" fill="white"/>
<path d="M82.3644 27.434L82.423 35.6354C82.428 36.3251 82.2773 36.9665 81.9698 37.5598C81.6632 38.1531 81.1994 38.6126 80.5792 38.9368C80.2814 39.0867 79.9775 39.1938 79.6665 39.2572C79.3558 39.3214 79.0387 39.3542 78.7146 39.3565C78.0926 39.3609 77.4815 39.2728 76.8826 39.0924C76.2837 38.9119 75.7219 38.7007 75.1973 38.4577C75.1729 38.4579 75.154 38.4522 75.141 38.4398C75.1288 38.428 75.11 38.4217 75.085 38.4219C73.786 37.7662 72.5957 36.7713 71.5154 35.4365C70.4356 34.102 69.8896 32.6836 69.8789 31.1809C69.8785 31.132 69.8782 31.0884 69.8779 31.0517C69.8777 31.0151 69.8774 30.972 69.877 30.9226C69.9018 30.8982 69.9139 30.8612 69.9136 30.8115C69.9132 30.7623 69.9129 30.7131 69.9125 30.6637C70.0055 29.7272 70.3485 28.9611 70.9419 28.3657C71.5352 27.7704 72.2927 27.4694 73.2138 27.4628C73.2388 27.4626 73.2764 27.4623 73.3258 27.462C73.3761 27.4616 73.4134 27.4614 73.4379 27.4612C73.4881 27.4608 73.5314 27.4669 73.5689 27.4786C73.6063 27.4911 73.6501 27.4963 73.6996 27.496L75.3442 27.6689L75.3706 31.3633L73.5766 31.1914C73.632 31.9057 73.9227 32.5806 74.4501 33.2171C74.9776 33.8542 75.5544 34.367 76.1793 34.7565C76.3048 34.8295 76.4173 34.8967 76.5169 34.9571C76.617 35.0183 76.7171 35.0729 76.8168 35.1214C76.8418 35.1212 76.9232 35.1517 77.0601 35.2121C77.1976 35.2728 77.3663 35.3391 77.5656 35.4116C77.5908 35.4361 77.6221 35.4545 77.6595 35.4664C77.697 35.4787 77.7286 35.4971 77.7534 35.5211C77.9285 35.5695 78.0967 35.6172 78.2586 35.6652C78.4212 35.7138 78.5393 35.7371 78.614 35.7366C78.639 35.7364 78.6643 35.7304 78.6886 35.7177C78.7135 35.7056 78.7257 35.6869 78.7256 35.6622L78.6582 26.2416L82.3644 27.434Z" fill="white"/>
<path d="M76.3986 18.4253L78.5208 17.4865C78.5455 17.4371 78.5638 17.3695 78.5755 17.283C78.5878 17.1968 78.5928 17.1046 78.5921 17.0057L78.5725 14.2719L82.2787 15.4645L82.2896 16.9792C82.2898 17.0039 82.29 17.0348 82.2902 17.0717C82.2905 17.1087 82.2907 17.1398 82.2909 17.1642C82.2716 17.8791 82.1021 18.5695 81.7828 19.2368C81.4644 19.9041 80.9321 20.4007 80.1874 20.726L77.9907 21.7023L82.3332 23.0752L82.3607 26.9173L59.3389 19.7299L59.3114 15.8877L73.1244 20.1854L69.3541 15.2617L72.3264 13.0607L76.3986 18.4253Z" fill="white"/>
<path d="M63.5652 10.0938L63.5903 13.6035L59.2786 11.3067L59.2538 7.83406L63.5652 10.0938Z" fill="white"/>
<path d="M82.1738 0.79881L82.2314 8.85222C82.2362 9.5172 82.0977 10.1404 81.8154 10.7211C81.5334 11.302 81.0943 11.7549 80.4991 12.0789C80.2263 12.2286 79.9283 12.3416 79.6051 12.4178C79.2824 12.494 78.9586 12.5332 78.6348 12.5355C78.5601 12.5361 78.4795 12.5308 78.3918 12.519C78.3046 12.5076 78.2114 12.5019 78.1117 12.5026C77.6134 12.457 77.1086 12.3562 76.5967 12.1996C76.0856 12.0432 75.6174 11.8805 75.1927 11.7107C73.9938 11.202 72.9994 10.5753 72.2098 9.8295C71.4201 9.08402 70.8234 8.30604 70.4191 7.49613C70.2178 7.15284 70.0592 6.81536 69.9448 6.48367C69.8304 6.15198 69.7475 5.82645 69.6952 5.50654C69.6697 5.35894 69.6498 5.2113 69.6358 5.06361C69.6227 4.91593 69.6151 4.75599 69.6139 4.58349C69.6066 3.57379 69.8869 2.67343 70.4536 1.88046C71.0211 1.0886 71.8147 0.688469 72.8354 0.681167C73.0351 0.679738 73.2405 0.696605 73.4522 0.732035C73.6642 0.767742 73.8952 0.834145 74.1445 0.93042C74.7684 1.12346 75.4501 1.52499 76.1888 2.135C76.9278 2.74556 77.6998 3.602 78.5041 4.70461L78.4676 -0.393596L82.1738 0.79881ZM74.2985 6.80309C74.9511 7.46344 75.664 7.95141 76.438 8.2656C76.4629 8.26542 76.4818 8.27167 76.494 8.28353C76.507 8.29621 76.5255 8.30164 76.5503 8.30146C75.8699 7.1738 75.2476 6.30989 74.683 5.71031C74.1185 5.11099 73.6365 4.70166 73.2361 4.48285C73.2927 5.36941 73.6468 6.14273 74.2985 6.80309Z" fill="white"/>
</g>
<defs>
<clipPath id="clip0">
<rect width="170" height="69.6438" fill="white" transform="translate(39.2298 91.2033) rotate(-90.4099)"/>
</clipPath>
</defs>
</svg>
