<svg width="34" height="429" viewBox="0 0 34 429" fill="none" xmlns="http://www.w3.org/2000/svg">
<path d="M0.958008 10.7422L1.74023 4.20312H9.21973V6.50586H4.14844L3.8584 9.0459C4.06934 8.92285 4.34473 8.81445 4.68457 8.7207C5.03027 8.62695 5.36719 8.58008 5.69531 8.58008C6.9668 8.58008 7.94238 8.95801 8.62207 9.71387C9.30762 10.4639 9.65039 11.5186 9.65039 12.8779C9.65039 13.6982 9.46582 14.4424 9.09668 15.1104C8.7334 15.7725 8.2207 16.2822 7.55859 16.6396C6.89648 16.9971 6.11426 17.1758 5.21191 17.1758C4.40918 17.1758 3.65625 17.0117 2.95312 16.6836C2.25 16.3496 1.69922 15.8955 1.30078 15.3213C0.902344 14.7412 0.706055 14.0879 0.711914 13.3613H3.68262C3.71191 13.8301 3.86133 14.2021 4.13086 14.4775C4.40039 14.7529 4.75488 14.8906 5.19434 14.8906C6.19043 14.8906 6.68848 14.1523 6.68848 12.6758C6.68848 11.3105 6.0791 10.6279 4.86035 10.6279C4.16895 10.6279 3.65332 10.8506 3.31348 11.2959L0.958008 10.7422ZM20.0918 11.7705C20.0918 13.499 19.7021 14.832 18.9229 15.7695C18.1494 16.707 17.0566 17.1758 15.6445 17.1758C14.2207 17.1758 13.1191 16.7041 12.3398 15.7607C11.5605 14.8174 11.1709 13.4873 11.1709 11.7705V9.43262C11.1709 7.7041 11.5576 6.37109 12.3311 5.43359C13.1104 4.49609 14.209 4.02734 15.627 4.02734C17.0449 4.02734 18.1436 4.49902 18.9229 5.44238C19.7021 6.38574 20.0918 7.71875 20.0918 9.44141V11.7705ZM17.1299 9.05469C17.1299 8.13477 17.0098 7.44922 16.7695 6.99805C16.5293 6.54102 16.1484 6.3125 15.627 6.3125C15.1172 6.3125 14.7451 6.52344 14.5107 6.94531C14.2822 7.36719 14.1592 8.00586 14.1416 8.86133V12.1309C14.1416 13.0859 14.2617 13.7861 14.502 14.2314C14.7422 14.6709 15.123 14.8906 15.6445 14.8906C16.1484 14.8906 16.5205 14.6768 16.7607 14.249C17.001 13.8154 17.124 13.1387 17.1299 12.2188V9.05469Z" fill="#F44A40"/>
<path d="M8.60449 56.999H9.90527V59.2842H8.60449V62H5.64258V59.2842H0.694336L0.518555 57.4736L5.64258 49.2295V49.2031H8.60449V56.999ZM3.33984 56.999H5.64258V53.0615L5.45801 53.3604L3.33984 56.999ZM11.3818 55.7422L12.1641 49.2031H19.6436V51.5059H14.5723L14.2822 54.0459C14.4932 53.9229 14.7686 53.8145 15.1084 53.7207C15.4541 53.627 15.791 53.5801 16.1191 53.5801C17.3906 53.5801 18.3662 53.958 19.0459 54.7139C19.7314 55.4639 20.0742 56.5186 20.0742 57.8779C20.0742 58.6982 19.8896 59.4424 19.5205 60.1104C19.1572 60.7725 18.6445 61.2822 17.9824 61.6396C17.3203 61.9971 16.5381 62.1758 15.6357 62.1758C14.833 62.1758 14.0801 62.0117 13.377 61.6836C12.6738 61.3496 12.123 60.8955 11.7246 60.3213C11.3262 59.7412 11.1299 59.0879 11.1357 58.3613H14.1064C14.1357 58.8301 14.2852 59.2021 14.5547 59.4775C14.8242 59.7529 15.1787 59.8906 15.6182 59.8906C16.6143 59.8906 17.1123 59.1523 17.1123 57.6758C17.1123 56.3105 16.5029 55.6279 15.2842 55.6279C14.5928 55.6279 14.0771 55.8506 13.7373 56.2959L11.3818 55.7422Z" fill="#F44A40"/>
<path d="M8.60449 100.999H9.90527V103.284H8.60449V106H5.64258V103.284H0.694336L0.518555 101.474L5.64258 93.2295V93.2031H8.60449V100.999ZM3.33984 100.999H5.64258V97.0615L5.45801 97.3604L3.33984 100.999ZM20.0918 100.771C20.0918 102.499 19.7021 103.832 18.9229 104.77C18.1494 105.707 17.0566 106.176 15.6445 106.176C14.2207 106.176 13.1191 105.704 12.3398 104.761C11.5605 103.817 11.1709 102.487 11.1709 100.771V98.4326C11.1709 96.7041 11.5576 95.3711 12.3311 94.4336C13.1104 93.4961 14.209 93.0273 15.627 93.0273C17.0449 93.0273 18.1436 93.499 18.9229 94.4424C19.7021 95.3857 20.0918 96.7188 20.0918 98.4414V100.771ZM17.1299 98.0547C17.1299 97.1348 17.0098 96.4492 16.7695 95.998C16.5293 95.541 16.1484 95.3125 15.627 95.3125C15.1172 95.3125 14.7451 95.5234 14.5107 95.9453C14.2822 96.3672 14.1592 97.0059 14.1416 97.8613V101.131C14.1416 102.086 14.2617 102.786 14.502 103.231C14.7422 103.671 15.123 103.891 15.6445 103.891C16.1484 103.891 16.5205 103.677 16.7607 103.249C17.001 102.815 17.124 102.139 17.1299 101.219V98.0547Z" fill="#F44A40"/>
<path d="M3.48926 143.362H4.88672C5.99414 143.362 6.54785 142.82 6.54785 141.736C6.54785 141.314 6.41602 140.972 6.15234 140.708C5.88867 140.438 5.5166 140.304 5.03613 140.304C4.64355 140.304 4.30078 140.418 4.00781 140.646C3.7207 140.875 3.57715 141.159 3.57715 141.499H0.615234C0.615234 140.825 0.802734 140.225 1.17773 139.697C1.55273 139.17 2.07129 138.76 2.7334 138.467C3.40137 138.168 4.13379 138.019 4.93066 138.019C6.35449 138.019 7.47363 138.344 8.28809 138.994C9.10254 139.645 9.50977 140.538 9.50977 141.675C9.50977 142.226 9.33984 142.747 9 143.239C8.66602 143.726 8.17676 144.121 7.53223 144.426C8.21191 144.672 8.74512 145.047 9.13184 145.551C9.51855 146.049 9.71191 146.667 9.71191 147.405C9.71191 148.548 9.27246 149.462 8.39355 150.147C7.51465 150.833 6.36035 151.176 4.93066 151.176C4.09277 151.176 3.31348 151.018 2.59277 150.701C1.87793 150.379 1.33594 149.937 0.966797 149.374C0.597656 148.806 0.413086 148.161 0.413086 147.44H3.39258C3.39258 147.833 3.55078 148.173 3.86719 148.46C4.18359 148.747 4.57324 148.891 5.03613 148.891C5.55762 148.891 5.97363 148.747 6.28418 148.46C6.59473 148.167 6.75 147.795 6.75 147.344C6.75 146.699 6.58887 146.242 6.2666 145.973C5.94434 145.703 5.49902 145.568 4.93066 145.568H3.48926V143.362ZM11.3818 144.742L12.1641 138.203H19.6436V140.506H14.5723L14.2822 143.046C14.4932 142.923 14.7686 142.814 15.1084 142.721C15.4541 142.627 15.791 142.58 16.1191 142.58C17.3906 142.58 18.3662 142.958 19.0459 143.714C19.7314 144.464 20.0742 145.519 20.0742 146.878C20.0742 147.698 19.8896 148.442 19.5205 149.11C19.1572 149.772 18.6445 150.282 17.9824 150.64C17.3203 150.997 16.5381 151.176 15.6357 151.176C14.833 151.176 14.0801 151.012 13.377 150.684C12.6738 150.35 12.123 149.896 11.7246 149.321C11.3262 148.741 11.1299 148.088 11.1357 147.361H14.1064C14.1357 147.83 14.2852 148.202 14.5547 148.478C14.8242 148.753 15.1787 148.891 15.6182 148.891C16.6143 148.891 17.1123 148.152 17.1123 146.676C17.1123 145.311 16.5029 144.628 15.2842 144.628C14.5928 144.628 14.0771 144.851 13.7373 145.296L11.3818 144.742Z" fill="#F44A40"/>
<path d="M3.48926 188.362H4.88672C5.99414 188.362 6.54785 187.82 6.54785 186.736C6.54785 186.314 6.41602 185.972 6.15234 185.708C5.88867 185.438 5.5166 185.304 5.03613 185.304C4.64355 185.304 4.30078 185.418 4.00781 185.646C3.7207 185.875 3.57715 186.159 3.57715 186.499H0.615234C0.615234 185.825 0.802734 185.225 1.17773 184.697C1.55273 184.17 2.07129 183.76 2.7334 183.467C3.40137 183.168 4.13379 183.019 4.93066 183.019C6.35449 183.019 7.47363 183.344 8.28809 183.994C9.10254 184.645 9.50977 185.538 9.50977 186.675C9.50977 187.226 9.33984 187.747 9 188.239C8.66602 188.726 8.17676 189.121 7.53223 189.426C8.21191 189.672 8.74512 190.047 9.13184 190.551C9.51855 191.049 9.71191 191.667 9.71191 192.405C9.71191 193.548 9.27246 194.462 8.39355 195.147C7.51465 195.833 6.36035 196.176 4.93066 196.176C4.09277 196.176 3.31348 196.018 2.59277 195.701C1.87793 195.379 1.33594 194.937 0.966797 194.374C0.597656 193.806 0.413086 193.161 0.413086 192.44H3.39258C3.39258 192.833 3.55078 193.173 3.86719 193.46C4.18359 193.747 4.57324 193.891 5.03613 193.891C5.55762 193.891 5.97363 193.747 6.28418 193.46C6.59473 193.167 6.75 192.795 6.75 192.344C6.75 191.699 6.58887 191.242 6.2666 190.973C5.94434 190.703 5.49902 190.568 4.93066 190.568H3.48926V188.362ZM20.0918 190.771C20.0918 192.499 19.7021 193.832 18.9229 194.77C18.1494 195.707 17.0566 196.176 15.6445 196.176C14.2207 196.176 13.1191 195.704 12.3398 194.761C11.5605 193.817 11.1709 192.487 11.1709 190.771V188.433C11.1709 186.704 11.5576 185.371 12.3311 184.434C13.1104 183.496 14.209 183.027 15.627 183.027C17.0449 183.027 18.1436 183.499 18.9229 184.442C19.7021 185.386 20.0918 186.719 20.0918 188.441V190.771ZM17.1299 188.055C17.1299 187.135 17.0098 186.449 16.7695 185.998C16.5293 185.541 16.1484 185.312 15.627 185.312C15.1172 185.312 14.7451 185.523 14.5107 185.945C14.2822 186.367 14.1592 187.006 14.1416 187.861V191.131C14.1416 192.086 14.2617 192.786 14.502 193.231C14.7422 193.671 15.123 193.891 15.6445 193.891C16.1484 193.891 16.5205 193.677 16.7607 193.249C17.001 192.815 17.124 192.139 17.1299 191.219V188.055Z" fill="#F44A40"/>
<path d="M9.71191 240H0.782227V238.066L4.89551 233.742C5.90918 232.588 6.41602 231.671 6.41602 230.991C6.41602 230.44 6.2959 230.021 6.05566 229.734C5.81543 229.447 5.4668 229.304 5.00977 229.304C4.55859 229.304 4.19238 229.497 3.91113 229.884C3.62988 230.265 3.48926 230.742 3.48926 231.316H0.518555C0.518555 230.531 0.714844 229.808 1.10742 229.146C1.5 228.478 2.04492 227.956 2.74219 227.581C3.43945 227.206 4.21875 227.019 5.08008 227.019C6.46289 227.019 7.52637 227.338 8.27051 227.977C9.02051 228.615 9.39551 229.532 9.39551 230.728C9.39551 231.231 9.30176 231.724 9.11426 232.204C8.92676 232.679 8.63379 233.18 8.23535 233.707C7.84277 234.229 7.20703 234.929 6.32812 235.808L4.67578 237.715H9.71191V240ZM11.3818 233.742L12.1641 227.203H19.6436V229.506H14.5723L14.2822 232.046C14.4932 231.923 14.7686 231.814 15.1084 231.721C15.4541 231.627 15.791 231.58 16.1191 231.58C17.3906 231.58 18.3662 231.958 19.0459 232.714C19.7314 233.464 20.0742 234.519 20.0742 235.878C20.0742 236.698 19.8896 237.442 19.5205 238.11C19.1572 238.772 18.6445 239.282 17.9824 239.64C17.3203 239.997 16.5381 240.176 15.6357 240.176C14.833 240.176 14.0801 240.012 13.377 239.684C12.6738 239.35 12.123 238.896 11.7246 238.321C11.3262 237.741 11.1299 237.088 11.1357 236.361H14.1064C14.1357 236.83 14.2852 237.202 14.5547 237.478C14.8242 237.753 15.1787 237.891 15.6182 237.891C16.6143 237.891 17.1123 237.152 17.1123 235.676C17.1123 234.311 16.5029 233.628 15.2842 233.628C14.5928 233.628 14.0771 233.851 13.7373 234.296L11.3818 233.742Z" fill="#F44A40"/>
<path d="M9.71191 285H0.782227V283.066L4.89551 278.742C5.90918 277.588 6.41602 276.671 6.41602 275.991C6.41602 275.44 6.2959 275.021 6.05566 274.734C5.81543 274.447 5.4668 274.304 5.00977 274.304C4.55859 274.304 4.19238 274.497 3.91113 274.884C3.62988 275.265 3.48926 275.742 3.48926 276.316H0.518555C0.518555 275.531 0.714844 274.808 1.10742 274.146C1.5 273.478 2.04492 272.956 2.74219 272.581C3.43945 272.206 4.21875 272.019 5.08008 272.019C6.46289 272.019 7.52637 272.338 8.27051 272.977C9.02051 273.615 9.39551 274.532 9.39551 275.728C9.39551 276.231 9.30176 276.724 9.11426 277.204C8.92676 277.679 8.63379 278.18 8.23535 278.707C7.84277 279.229 7.20703 279.929 6.32812 280.808L4.67578 282.715H9.71191V285ZM20.0918 279.771C20.0918 281.499 19.7021 282.832 18.9229 283.77C18.1494 284.707 17.0566 285.176 15.6445 285.176C14.2207 285.176 13.1191 284.704 12.3398 283.761C11.5605 282.817 11.1709 281.487 11.1709 279.771V277.433C11.1709 275.704 11.5576 274.371 12.3311 273.434C13.1104 272.496 14.209 272.027 15.627 272.027C17.0449 272.027 18.1436 272.499 18.9229 273.442C19.7021 274.386 20.0918 275.719 20.0918 277.441V279.771ZM17.1299 277.055C17.1299 276.135 17.0098 275.449 16.7695 274.998C16.5293 274.541 16.1484 274.312 15.627 274.312C15.1172 274.312 14.7451 274.523 14.5107 274.945C14.2822 275.367 14.1592 276.006 14.1416 276.861V280.131C14.1416 281.086 14.2617 281.786 14.502 282.231C14.7422 282.671 15.123 282.891 15.6445 282.891C16.1484 282.891 16.5205 282.677 16.7607 282.249C17.001 281.815 17.124 281.139 17.1299 280.219V277.055Z" fill="#F44A40"/>
<path d="M7.34766 330H4.37695V320.543L1.45898 321.396V319.146L7.0752 317.203H7.34766V330ZM11.3818 323.742L12.1641 317.203H19.6436V319.506H14.5723L14.2822 322.046C14.4932 321.923 14.7686 321.814 15.1084 321.721C15.4541 321.627 15.791 321.58 16.1191 321.58C17.3906 321.58 18.3662 321.958 19.0459 322.714C19.7314 323.464 20.0742 324.519 20.0742 325.878C20.0742 326.698 19.8896 327.442 19.5205 328.11C19.1572 328.772 18.6445 329.282 17.9824 329.64C17.3203 329.997 16.5381 330.176 15.6357 330.176C14.833 330.176 14.0801 330.012 13.377 329.684C12.6738 329.35 12.123 328.896 11.7246 328.321C11.3262 327.741 11.1299 327.088 11.1357 326.361H14.1064C14.1357 326.83 14.2852 327.202 14.5547 327.478C14.8242 327.753 15.1787 327.891 15.6182 327.891C16.6143 327.891 17.1123 327.152 17.1123 325.676C17.1123 324.311 16.5029 323.628 15.2842 323.628C14.5928 323.628 14.0771 323.851 13.7373 324.296L11.3818 323.742Z" fill="#F44A40"/>
<path d="M7.34766 374H4.37695V364.543L1.45898 365.396V363.146L7.0752 361.203H7.34766V374ZM20.0918 368.771C20.0918 370.499 19.7021 371.832 18.9229 372.77C18.1494 373.707 17.0566 374.176 15.6445 374.176C14.2207 374.176 13.1191 373.704 12.3398 372.761C11.5605 371.817 11.1709 370.487 11.1709 368.771V366.433C11.1709 364.704 11.5576 363.371 12.3311 362.434C13.1104 361.496 14.209 361.027 15.627 361.027C17.0449 361.027 18.1436 361.499 18.9229 362.442C19.7021 363.386 20.0918 364.719 20.0918 366.441V368.771ZM17.1299 366.055C17.1299 365.135 17.0098 364.449 16.7695 363.998C16.5293 363.541 16.1484 363.312 15.627 363.312C15.1172 363.312 14.7451 363.523 14.5107 363.945C14.2822 364.367 14.1592 365.006 14.1416 365.861V369.131C14.1416 370.086 14.2617 370.786 14.502 371.231C14.7422 371.671 15.123 371.891 15.6445 371.891C16.1484 371.891 16.5205 371.677 16.7607 371.249C17.001 370.815 17.124 370.139 17.1299 369.219V366.055Z" fill="#F44A40"/>
<path d="M9.92285 412.742L10.7051 406.203H18.1846V408.506H13.1133L12.8232 411.046C13.0342 410.923 13.3096 410.814 13.6494 410.721C13.9951 410.627 14.332 410.58 14.6602 410.58C15.9316 410.58 16.9072 410.958 17.5869 411.714C18.2725 412.464 18.6152 413.519 18.6152 414.878C18.6152 415.698 18.4307 416.442 18.0615 417.11C17.6982 417.772 17.1855 418.282 16.5234 418.64C15.8613 418.997 15.0791 419.176 14.1768 419.176C13.374 419.176 12.6211 419.012 11.918 418.684C11.2148 418.35 10.6641 417.896 10.2656 417.321C9.86719 416.741 9.6709 416.088 9.67676 415.361H12.6475C12.6768 415.83 12.8262 416.202 13.0957 416.478C13.3652 416.753 13.7197 416.891 14.1592 416.891C15.1553 416.891 15.6533 416.152 15.6533 414.676C15.6533 413.311 15.0439 412.628 13.8252 412.628C13.1338 412.628 12.6182 412.851 12.2783 413.296L9.92285 412.742Z" fill="#F44A40"/>
</svg>
