<?xml version="1.0" encoding="utf-8"?>
<!-- Generator: Adobe Illustrator 16.0.0, SVG Export Plug-In . SVG Version: 6.00 Build 0)  -->
<!DOCTYPE svg PUBLIC "-//W3C//DTD SVG 1.1//EN" "http://www.w3.org/Graphics/SVG/1.1/DTD/svg11.dtd">
<svg version="1.1" id="Layer_1" xmlns="http://www.w3.org/2000/svg" xmlns:xlink="http://www.w3.org/1999/xlink" x="0px" y="0px"
	 width="612px" height="248px" viewBox="0 0 612 248" enable-background="new 0 0 612 248" xml:space="preserve">
<g>
	<g>
		<g>
			<path fill-rule="evenodd" clip-rule="evenodd" fill="#CC463E" d="M550.833,16.437c5.932,0,11.863,0,17.794,0
				c0.548,1.066,1.605,0.68,2.466,0.886c7.111,1.699,13.589,4.645,18.85,9.86c5.131,5.087,8.164,11.315,9.725,18.313
				c0.101,0.452,0.118,1.005,0.823,0.941c0,5.862,0,11.724,0,17.586c-0.715,1.322-1.239,2.728-1.656,4.162
				c-2.775,9.542-5.559,19.082-8.264,28.644c-2.133,7.537-3.464,15.234-3.901,23.051c-0.231,4.14,0.042,8.296,0.563,12.426
				c0.518,4.103,1.264,8.159,2.216,12.18c1.85,7.808,4.364,15.419,6.799,23.054c1.503,4.711,2.895,9.455,4.243,14.211
				c0,5.862,0,11.725,0,17.586c-0.182-0.047-0.331,0.014-0.478,0.122c-0.729,0.537-0.652,1.394-0.866,2.139
				c-2.539,8.844-7.389,16.012-15.37,20.803c-4.235,2.542-8.721,4.528-13.718,5.07c-0.663,0.072-1.149,0.423-1.433,1.037
				c-5.791-0.003-11.583-0.007-17.374-0.011c-0.442-1.2-1.509-0.836-2.383-0.947c-7.005-0.89-14.011-1.777-21.016-2.665
				c-7.859-0.997-15.719-1.996-23.579-2.988c-7.382-0.932-14.765-1.857-22.147-2.784c-7.451-0.936-14.901-1.878-22.354-2.802
				c-7.555-0.937-15.113-1.844-22.667-2.782c-9.093-1.129-18.185-2.267-27.274-3.42c-7.723-0.98-15.447-1.946-23.16-2.993
				c-8.467-1.15-16.942-2.214-25.452-2.982c-10.467-0.944-20.952-1.596-31.457-1.916c-9.37-0.285-18.74-0.413-28.117-0.315
				c-11.202,0.117-22.382,0.601-33.545,1.548c-8.412,0.713-16.806,1.588-25.183,2.627c-7.726,0.958-15.443,1.979-23.164,2.976
				c-8.813,1.138-17.624,2.302-26.44,3.415c-8.168,1.03-16.344,2-24.515,3.011c-7.488,0.927-14.974,1.869-22.459,2.811
				c-7.313,0.92-14.627,1.845-21.939,2.777c-7.243,0.923-14.485,1.858-21.727,2.787c-6.114,0.785-12.223,1.613-18.362,2.202
				c-4.767,0.457-9.515,1.073-14.11,2.52c-6-0.007-12.001-0.014-18.002-0.021c-0.354-0.686-0.974-0.964-1.689-1.015
				c-0.904-0.065-1.756-0.334-2.612-0.587c-13.577-4.014-22.268-12.774-25.789-26.556c-0.085-0.334-0.147-0.735-0.475-0.885
				c-0.585-0.268-0.503-0.749-0.503-1.223c0-5.377,0.008-10.755-0.009-16.132c-0.003-0.805,0.133-1.56,0.376-2.323
				c3.191-9.992,6.345-19.996,9.556-29.982c2.279-7.087,3.757-14.314,3.931-21.771c0.218-9.292-1.122-18.417-3.405-27.387
				c-2.724-10.702-5.958-21.266-9.068-31.862c-0.939-3.201-1.538-6.375-1.415-9.731c0.146-3.993,0.036-7.996,0.033-11.994
				c0-0.71-0.109-1.427,0.703-1.864c0.336-0.181,0.365-0.641,0.437-1.015c0.281-1.459,0.762-2.858,1.301-4.236
				c5.023-12.833,14.558-20.068,27.952-22.518c0.594-0.109,1.24-0.224,1.298-1.036c5.586,0,11.173,0,16.759,0
				c0.024,0.735,0.62,0.75,1.104,0.812c6.048,0.768,12.097,1.522,18.147,2.271c9.162,1.133,18.325,2.25,27.486,3.389
				c8.58,1.067,17.157,2.161,25.737,3.232c9.64,1.203,19.282,2.388,28.921,3.592c10.22,1.277,20.438,2.559,30.656,3.854
				c10.456,1.325,20.918,2.605,31.362,4.022c12.838,1.742,25.698,3.241,38.629,4.126c11.897,0.815,23.806,1.241,35.727,1.346
				c13.958,0.124,27.908-0.144,41.832-1.226c6.732-0.523,13.458-1.131,20.165-1.903c7.151-0.822,14.296-1.708,21.437-2.613
				c7.073-0.896,14.137-1.863,21.208-2.773c7.926-1.02,15.854-2.022,23.783-3.012c7.075-0.883,14.154-1.732,21.23-2.61
				c7.418-0.919,14.834-1.849,22.25-2.785c7.279-0.918,14.558-1.843,21.834-2.776c7.242-0.928,14.479-1.897,21.724-2.796
				c7.006-0.87,14.026-1.629,21.028-2.531C546.21,17.751,548.593,17.369,550.833,16.437z"/>
			<path fill-rule="evenodd" clip-rule="evenodd" fill="none" d="M70.2,228.577c4.595-1.446,9.343-2.063,14.11-2.52
				c6.139-0.588,12.248-1.417,18.362-2.202c7.242-0.929,14.484-1.864,21.727-2.787c7.313-0.932,14.626-1.857,21.939-2.777
				c7.486-0.942,14.972-1.884,22.459-2.811c8.17-1.011,16.347-1.981,24.515-3.011c8.816-1.113,17.626-2.277,26.44-3.415
				c7.721-0.997,15.438-2.018,23.164-2.976c8.376-1.039,16.771-1.915,25.183-2.627c11.163-0.947,22.343-1.431,33.545-1.548
				c9.376-0.097,18.747,0.03,28.117,0.315c10.505,0.32,20.99,0.972,31.457,1.916c8.51,0.768,16.985,1.833,25.452,2.982
				c7.713,1.047,15.438,2.013,23.16,2.993c9.09,1.153,18.182,2.291,27.274,3.42c7.554,0.938,15.112,1.846,22.667,2.782
				c7.453,0.924,14.903,1.867,22.354,2.802c7.383,0.927,14.766,1.852,22.147,2.784c7.86,0.992,15.72,1.991,23.579,2.988
				c7.005,0.888,14.011,1.775,21.016,2.665c0.874,0.111,1.94-0.253,2.383,0.947c-0.001,0.073-0.003,0.147-0.005,0.22
				c-160.349,0-320.698,0-481.048,0C70.2,228.671,70.2,228.625,70.2,228.577z"/>
			<path fill-rule="evenodd" clip-rule="evenodd" fill="none" d="M550.833,16.437c-2.24,0.932-4.623,1.314-6.994,1.62
				c-7.002,0.902-14.022,1.661-21.028,2.531c-7.245,0.899-14.481,1.869-21.724,2.796c-7.276,0.933-14.555,1.857-21.834,2.776
				c-7.416,0.936-14.832,1.865-22.25,2.785c-7.076,0.877-14.155,1.727-21.23,2.61c-7.93,0.99-15.857,1.992-23.783,3.012
				c-7.071,0.91-14.135,1.877-21.208,2.773c-7.141,0.904-14.285,1.791-21.437,2.613c-6.707,0.771-13.433,1.379-20.165,1.903
				c-13.924,1.082-27.874,1.349-41.832,1.226c-11.92-0.105-23.83-0.531-35.727-1.346c-12.931-0.885-25.791-2.384-38.629-4.126
				c-10.444-1.417-20.906-2.697-31.362-4.022c-10.217-1.295-20.436-2.577-30.656-3.854c-9.639-1.204-19.281-2.389-28.921-3.592
				c-8.58-1.071-17.157-2.165-25.737-3.232c-9.161-1.139-18.324-2.256-27.486-3.389c-6.05-0.749-12.1-1.503-18.147-2.271
				c-0.484-0.062-1.08-0.077-1.104-0.812C229.997,16.437,390.415,16.437,550.833,16.437z"/>
			<path fill-rule="evenodd" clip-rule="evenodd" fill="none" d="M52.819,16.437c-0.059,0.812-0.705,0.927-1.298,1.036
				c-13.394,2.449-22.928,9.685-27.952,22.518c-0.54,1.378-1.021,2.777-1.301,4.236c-0.072,0.375-0.101,0.834-0.437,1.015
				c-0.812,0.437-0.703,1.153-0.703,1.864c0.002,3.999,0.112,8.001-0.033,11.994c-0.123,3.357,0.476,6.53,1.415,9.731
				c3.11,10.596,6.345,21.16,9.068,31.862c2.283,8.971,3.623,18.095,3.405,27.387c-0.174,7.457-1.652,14.684-3.931,21.771
				c-3.211,9.986-6.365,19.99-9.556,29.982c-0.244,0.763-0.379,1.519-0.376,2.323c0.018,5.377,0.009,10.755,0.009,16.132
				c0,0.474-0.082,0.955,0.503,1.223c0.328,0.15,0.39,0.551,0.475,0.885c3.521,13.782,12.211,22.542,25.789,26.556
				c0.856,0.253,1.708,0.522,2.612,0.587c0.715,0.051,1.335,0.329,1.689,1.015c0,0.054,0,0.109,0,0.163
				c-12.414,0-24.828-0.008-37.242,0.02c-0.709,0.001-0.848-0.139-0.847-0.848c0.021-70.209,0.021-140.418,0-210.626
				c0-0.708,0.138-0.849,0.847-0.848C27.578,16.444,40.198,16.437,52.819,16.437z"/>
			<path fill-rule="evenodd" clip-rule="evenodd" fill="none" d="M600.49,181.752c-1.349-4.757-2.74-9.5-4.243-14.211
				c-2.435-7.635-4.949-15.246-6.799-23.054c-0.952-4.021-1.698-8.078-2.216-12.18c-0.521-4.13-0.795-8.286-0.563-12.426
				c0.438-7.816,1.769-15.514,3.901-23.051c2.705-9.562,5.488-19.102,8.264-28.644c0.417-1.434,0.941-2.839,1.656-4.162
				C600.49,103.267,600.49,142.509,600.49,181.752z"/>
			<path fill-rule="evenodd" clip-rule="evenodd" fill="none" d="M568.626,228.509c0.283-0.614,0.77-0.964,1.433-1.037
				c4.997-0.542,9.482-2.528,13.718-5.07c7.981-4.792,12.831-11.959,15.37-20.803c0.214-0.745,0.138-1.602,0.866-2.139
				c0.146-0.108,0.296-0.169,0.478-0.122c0,9.552-0.008,19.104,0.017,28.656c0.002,0.617-0.124,0.743-0.741,0.741
				c-10.379-0.024-20.759-0.017-31.139-0.017C568.627,228.649,568.627,228.579,568.626,228.509z"/>
			<path fill-rule="evenodd" clip-rule="evenodd" fill="none" d="M600.49,46.438c-0.705,0.063-0.723-0.49-0.823-0.941
				c-1.561-6.999-4.594-13.227-9.725-18.313c-5.261-5.216-11.738-8.161-18.85-9.86c-0.86-0.206-1.918,0.18-2.466-0.886
				c10.362,0,20.725,0.006,31.087-0.016c0.642-0.001,0.795,0.14,0.793,0.789C600.482,26.953,600.49,36.695,600.49,46.438z"/>
			<path fill-rule="evenodd" clip-rule="evenodd" fill="none" d="M52.199,228.719c0-0.054,0-0.109,0-0.163
				c6.001,0.007,12.001,0.014,18.002,0.021c0,0.047,0,0.094-0.001,0.142C64.199,228.719,58.199,228.719,52.199,228.719z"/>
			<path fill-rule="evenodd" clip-rule="evenodd" fill="none" d="M568.626,228.509c0.001,0.07,0.001,0.14,0.001,0.209
				c-5.793,0-11.586,0-17.38,0c0.002-0.073,0.004-0.147,0.005-0.22C557.043,228.502,562.835,228.506,568.626,228.509z"/>
		</g>
	</g>
	<g>
		<path fill="#FFFFFF" d="M126.692,122.97c-5.675,3.68-11.66,6.496-17.955,8.445c1.417,1.419,2.727,3.016,3.924,4.788
			c1.197,1.775,2.238,3.681,3.125,5.719h15.029l-4.389,13.167h-19.285c-0.089-0.266-0.179-0.509-0.266-0.731
			c-0.089-0.22-0.179-0.466-0.266-0.731c-2.128-5.054-4.678-9.376-7.647-12.968c-2.972-3.591-8.18-5.474-15.627-5.652l4.256-13.3
			c1.241-0.087,2.504-0.199,3.791-0.332c1.284-0.133,2.548-0.287,3.791-0.466c6.737-1.064,13.211-3.013,19.418-5.852
			c6.206-2.836,11.172-7.226,14.896-13.167c0.177-0.266,0.354-0.553,0.532-0.864c0.177-0.31,0.353-0.642,0.532-0.998
			c0.266-0.443,0.509-0.908,0.731-1.396c0.221-0.486,0.466-0.952,0.732-1.396c0.266-0.619,0.465-1.218,0.598-1.795
			c0.133-0.576,0.2-1.131,0.2-1.663c-0.089-0.885-0.399-1.64-0.931-2.261c-0.532-0.619-1.463-0.975-2.793-1.064
			c-2.217-0.177-4.877,0.223-7.98,1.197c-3.104,0.977-6.696,2.66-10.773,5.054c-8.778,5.32-16.559,12.126-23.341,20.416
			c-6.783,8.292-13.101,16.87-18.953,25.736c-1.33,2.041-2.639,4.079-3.924,6.118c-1.286,2.041-2.593,4.08-3.923,6.118H45.296
			c4.167-6.827,8.246-13.898,12.236-21.213c3.99-7.315,7.492-14.697,10.507-22.145c0.532-1.241,1.041-2.481,1.529-3.724
			c0.486-1.241,0.952-2.481,1.396-3.724c0.975-2.66,1.795-5.098,2.46-7.315c0.665-2.215,1.042-4.167,1.131-5.852
			c0-0.532-0.112-0.908-0.333-1.13c-0.223-0.22-0.731-0.333-1.53-0.333H58.862l4.256-13.167h7.714c4.699,0,8.778,0.887,12.236,2.66
			c3.458,1.774,4.965,6.03,4.522,12.768c0,1.064-0.112,2.151-0.333,3.259c-0.222,1.11-0.511,2.328-0.864,3.657
			c1.241-1.151,2.614-2.394,4.123-3.724c1.506-1.33,3.146-2.66,4.921-3.99c3.103-2.305,6.451-4.542,10.042-6.716
			c3.591-2.172,7.249-3.924,10.973-5.253c1.949-0.62,3.9-1.131,5.852-1.53c1.95-0.399,3.857-0.599,5.719-0.599
			c2.305,0,4.522,0.333,6.65,0.998s4.077,1.796,5.852,3.392c1.949,1.596,3.325,3.415,4.123,5.453
			c0.798,2.041,1.197,4.168,1.197,6.384c0,0.532-0.022,1.043-0.066,1.53c-0.045,0.488-0.112,0.954-0.199,1.396
			c-0.355,2.307-0.977,4.545-1.862,6.716c-0.887,2.174-1.951,4.189-3.192,6.052C136.977,114.614,132.366,119.292,126.692,122.97z"/>
		<path fill="#FFFFFF" d="M178.961,155.222h-12.901c-1.419,0-2.706-0.22-3.857-0.665c-1.153-0.442-2.217-1.018-3.192-1.729
			c-1.33,0.798-2.772,1.463-4.322,1.995c-1.552,0.532-3.082,0.885-4.588,1.064c-0.532,0.087-1.064,0.154-1.596,0.2
			c-0.532,0.043-1.064,0.066-1.596,0.066c-2.75,0-5.343-0.622-7.781-1.862c-2.439-1.241-4.368-3.236-5.786-5.985
			c-0.532-1.151-0.931-2.282-1.197-3.392c-0.266-1.107-0.399-2.238-0.399-3.391c0-2.305,0.442-4.543,1.33-6.717
			c0.885-2.171,2.039-4.189,3.458-6.051c4.433-5.939,9.952-10.129,16.558-12.568c6.604-2.438,13.454-3.745,20.549-3.924
			c0.266,0,0.553,0,0.864,0c0.31,0,0.642,0,0.998,0v13.167c-2.839,0-5.652,0.179-8.445,0.532c-2.793,0.355-5.476,1.02-8.047,1.995
			c-2.307,0.798-4.478,1.908-6.517,3.325c-2.041,1.419-3.813,3.148-5.32,5.187c-0.089,0.179-0.222,0.399-0.399,0.665
			c-0.179,0.266-0.355,0.578-0.532,0.931c-0.179,0.266-0.333,0.532-0.466,0.798c-0.133,0.266-0.289,0.578-0.465,0.931
			c-0.089,0.266-0.179,0.578-0.266,0.931c-0.089,0.355-0.133,0.665-0.133,0.931c0,0.355,0.133,0.688,0.399,0.998
			c0.266,0.312,0.708,0.465,1.33,0.465c3.458,0,6.028-1.151,7.714-3.458c1.683-2.305,3.013-4.832,3.99-7.581
			c0.176-0.619,0.353-1.197,0.532-1.729c0.177-0.532,0.354-1.064,0.532-1.596l12.502,4.123l-2.926,9.177h14.231L178.961,155.222z"/>
		<path fill="#FFFFFF" d="M223.781,155.222h-29.526c-2.483,0-4.788-0.553-6.916-1.663c-2.128-1.107-3.77-2.77-4.921-4.987
			c-0.532-1.064-0.91-2.149-1.13-3.258c-0.223-1.108-0.333-2.238-0.333-3.392c0-2.215,0.333-4.389,0.998-6.517
			s1.44-4.123,2.328-5.985c0-0.087,0.021-0.154,0.066-0.2c0.043-0.043,0.066-0.11,0.066-0.199
			c2.394-4.609,6.006-8.822,10.839-12.635c4.832-3.811,9.952-5.719,15.362-5.719c0.176,0,0.333,0,0.465,0s0.287,0,0.465,0
			c0.087,0.089,0.22,0.133,0.399,0.133c0.177,0,0.354,0,0.532,0c3.369,0.355,6.118,1.596,8.246,3.724s3.192,4.833,3.192,8.113
			c0,0.089,0,0.223,0,0.399c0,0.179,0,0.312,0,0.399c0,0.179-0.023,0.333-0.066,0.466c-0.046,0.133-0.066,0.289-0.066,0.465
			l-0.665,5.852h-13.3l0.665-6.384c-2.573,0.179-5.01,1.197-7.315,3.059c-2.307,1.862-4.168,3.903-5.586,6.118
			c-0.266,0.445-0.511,0.844-0.731,1.197c-0.223,0.355-0.422,0.71-0.599,1.064c0,0.089-0.112,0.378-0.333,0.864
			c-0.222,0.488-0.465,1.087-0.731,1.795c-0.089,0.089-0.156,0.2-0.2,0.333c-0.045,0.133-0.112,0.245-0.199,0.333
			c-0.179,0.622-0.355,1.22-0.532,1.795c-0.179,0.578-0.266,0.998-0.266,1.264c0,0.089,0.021,0.179,0.066,0.266
			c0.043,0.089,0.11,0.133,0.199,0.133h33.915L223.781,155.222z"/>
		<path fill="#FFFFFF" d="M256.365,134.208l3.325,7.581c0.177,0.089,0.42,0.156,0.731,0.2c0.31,0.046,0.642,0.066,0.998,0.066h9.842
			l-4.389,13.167h-5.453c-0.089,0-0.2,0-0.333,0s-0.245,0-0.333,0c-2.573-0.087-5.054-0.708-7.448-1.862
			c-2.394-1.151-4.168-3.059-5.32-5.719l-3.458-7.847l-5.054,15.428h-13.832l26.467-81.795h13.832l-15.827,49.077l17.822-13.3
			l7.847,10.64L256.365,134.208z"/>
		<path fill="#FFFFFF" d="M286.688,88.722h-12.635l8.379-15.295h12.502L286.688,88.722z"/>
		<path fill="#FFFFFF" d="M319.67,155.222h-28.993c-2.394,0-4.634-0.509-6.717-1.529c-2.084-1.019-3.703-2.594-4.854-4.722
			c-0.532-0.975-0.931-2.039-1.197-3.192c-0.266-1.151-0.399-2.305-0.399-3.458c0-0.266,0.021-0.553,0.066-0.865
			c0.043-0.31,0.066-0.642,0.066-0.997c0.177-1.773,0.553-3.568,1.13-5.387c0.576-1.816,1.174-3.479,1.796-4.987
			c1.862-4.256,4.144-7.781,6.849-10.574c2.704-2.793,5.52-4.898,8.446-6.317c1.241-0.708,2.46-1.264,3.657-1.663
			c1.197-0.399,2.371-0.686,3.524-0.864c0.532-0.087,1.064-0.154,1.596-0.2c0.532-0.043,1.108-0.066,1.729-0.066
			c3.635,0,6.869,1.021,9.709,3.059c2.836,2.041,4.256,4.877,4.256,8.512c0,0.711-0.066,1.442-0.199,2.195
			c-0.134,0.754-0.379,1.575-0.732,2.46c-0.711,2.217-2.174,4.634-4.389,7.249c-2.217,2.616-5.32,5.343-9.31,8.179h18.354
			L319.67,155.222z M298.258,127.026c-2.394,2.307-4.169,4.833-5.32,7.581c0,0.089-0.023,0.156-0.066,0.199
			c-0.046,0.046-0.066,0.112-0.066,0.2c4.077-2.394,7.203-4.588,9.376-6.583c2.172-1.995,3.658-3.701,4.456-5.121
			C303.445,123.481,300.652,124.722,298.258,127.026z"/>
		<path fill="#FFFFFF" d="M397.342,155.222h-9.044c-3.281,0-5.941-1.064-7.979-3.192c-2.041-2.128-3.06-4.699-3.06-7.714
			c0-0.62,0.067-1.264,0.2-1.929s0.286-1.307,0.465-1.928c0.532-1.773,1.064-3.525,1.596-5.254c0.533-1.729,1.107-3.435,1.729-5.12
			c0.087-0.266,0.177-0.509,0.267-0.731c0.086-0.221,0.133-0.42,0.133-0.599c0.176-0.443,0.354-0.908,0.531-1.396
			c0.177-0.486,0.266-0.952,0.266-1.396c-0.797,0.266-1.662,0.71-2.593,1.33c-0.931,0.621-1.885,1.375-2.859,2.261
			c-2.483,2.128-4.834,4.655-7.05,7.581c-2.217,2.926-3.945,5.941-5.187,9.044c-0.532,1.419-1.021,2.905-1.463,4.456
			c-0.444,1.552-0.888,3.082-1.33,4.588h-13.965c0.353-1.064,0.686-2.148,0.997-3.258c0.311-1.108,0.643-2.238,0.998-3.392
			c0.354-1.151,0.731-2.282,1.131-3.392c0.398-1.107,0.818-2.194,1.264-3.258c0.266-0.975,0.553-1.949,0.863-2.926
			c0.311-0.975,0.643-1.995,0.998-3.059c0.354-0.975,0.686-1.95,0.998-2.926c0.309-0.975,0.642-1.949,0.997-2.926
			c0.087-0.177,0.153-0.354,0.199-0.532c0.044-0.177,0.067-0.353,0.067-0.532c0.176-0.443,0.332-0.931,0.465-1.463
			c0.133-0.532,0.243-1.064,0.332-1.596c-0.711,0.266-1.552,0.71-2.526,1.33c-0.978,0.621-1.952,1.375-2.927,2.261
			c-2.482,2.217-4.854,4.745-7.115,7.581c-2.261,2.839-3.924,5.852-4.987,9.044l-2.926,9.044h-13.699l13.832-43.092h13.965
			l-1.063,2.926c1.063-0.619,2.194-1.13,3.391-1.529c1.197-0.399,2.416-0.731,3.658-0.998c0.354,0,0.752-0.021,1.197-0.066
			c0.442-0.044,0.842-0.066,1.197-0.066c2.038,0,3.9,0.444,5.586,1.33c1.683,0.888,3.102,2.394,4.256,4.522
			c0,0.089,0.043,0.179,0.133,0.266c0,0.089,0.043,0.179,0.133,0.266c2.305-1.862,4.699-3.412,7.182-4.655
			c2.481-1.241,4.965-1.862,7.448-1.862c0.708,0,1.44,0.066,2.194,0.2c0.752,0.133,1.484,0.333,2.195,0.599
			c2.659,1.064,4.498,2.639,5.52,4.721c1.018,2.084,1.529,4.368,1.529,6.85c0,1.686-0.156,3.325-0.466,4.921
			c-0.312,1.596-0.731,3.148-1.264,4.655c-0.267,0.621-0.511,1.263-0.731,1.928c-0.223,0.665-0.422,1.309-0.599,1.929
			c-0.179,0.71-0.378,1.375-0.599,1.995c-0.223,0.622-0.422,1.287-0.598,1.995h10.373L397.342,155.222z"/>
		<path fill="#FFFFFF" d="M513.516,81.274c-0.844,1.596-1.708,3.238-2.594,4.921c-0.266,0.445-0.531,0.91-0.797,1.396
			c-0.267,0.488-0.489,0.954-0.666,1.396c-0.711,1.153-1.375,2.351-1.994,3.591c-0.622,1.243-1.154,2.483-1.597,3.724
			c-1.33,3.813-2.616,7.627-3.856,11.438c-1.243,3.813-2.484,7.581-3.725,11.305c-0.355,1.33-0.731,2.616-1.131,3.857
			c-0.398,1.243-0.82,2.527-1.263,3.857c-0.798,2.483-1.597,4.987-2.394,7.515c-0.799,2.527-1.597,5.077-2.395,7.647h13.033
			l-3.856,13.167h-11.039c-2.749,0-5.187-0.885-7.315-2.66c-2.127-1.772-3.503-3.944-4.123-6.517
			c-2.926,2.839-6.051,5.077-9.376,6.717c-3.325,1.642-6.938,2.46-10.839,2.46c-6.829,0-11.594-1.795-14.298-5.387
			c-2.706-3.591-4.057-8.223-4.057-13.898c0-5.32,0.819-10.573,2.46-15.76s3.436-10.308,5.387-15.362
			c0.619-1.596,1.24-3.169,1.862-4.721c0.619-1.55,1.196-3.125,1.729-4.722c0.619-1.772,1.063-3.125,1.33-4.057
			c0.266-0.931,0.398-1.573,0.398-1.928c0-0.177-0.023-0.333-0.066-0.466c-0.046-0.133-0.156-0.199-0.332-0.199
			c-0.889-0.354-1.818-0.619-2.793-0.798c-0.978-0.177-1.952-0.354-2.927-0.532c-0.179-0.087-0.333-0.133-0.466-0.133
			s-0.289-0.044-0.465-0.133c-0.621-0.087-1.243-0.177-1.862-0.266c-0.621-0.087-1.243-0.22-1.862-0.399l2.66-12.768
			c0.619,0.089,1.24,0.2,1.862,0.333c0.619,0.133,1.241,0.246,1.862,0.333c0.176,0,0.376,0.023,0.598,0.067
			c0.221,0.045,0.42,0.066,0.6,0.066c1.15,0.179,2.348,0.399,3.59,0.665c1.241,0.266,2.438,0.621,3.592,1.064
			c3.545,1.243,5.984,2.926,7.314,5.054s1.995,4.479,1.995,7.049c0,1.33-0.133,2.683-0.399,4.056
			c-0.266,1.376-0.621,2.772-1.063,4.19c-0.355,0.977-0.71,1.974-1.063,2.992c-0.355,1.021-0.711,2.062-1.064,3.125
			c-0.266,0.532-0.512,1.064-0.731,1.596c-0.223,0.532-0.422,1.064-0.599,1.596c-0.355,0.977-0.754,2.018-1.197,3.125
			c-0.444,1.11-0.887,2.24-1.33,3.392c-0.444,1.33-0.91,2.66-1.396,3.99c-0.488,1.33-0.953,2.706-1.396,4.123
			c-0.887,2.749-1.619,5.453-2.194,8.113c-0.577,2.66-0.864,5.1-0.864,7.315c0,1.775,0.376,3.238,1.131,4.389
			c0.752,1.153,2.105,1.729,4.057,1.729c6.205,0,11.813-4.189,16.824-12.568c5.008-8.379,9.818-17.577,14.43-27.598
			c0.178-0.443,0.377-0.865,0.6-1.264c0.22-0.399,0.42-0.819,0.598-1.263c0.177-0.354,0.333-0.686,0.466-0.998
			c0.133-0.31,0.286-0.599,0.466-0.865c0.442-0.975,0.885-1.928,1.33-2.859c0.442-0.931,0.842-1.883,1.197-2.859
			c0.708-1.684,1.329-3.369,1.861-5.054c0.532-1.683,1.018-3.369,1.463-5.054c0.088-0.087,0.154-0.199,0.199-0.332
			c0.044-0.133,0.066-0.243,0.066-0.333c0.178-0.709,0.377-1.44,0.6-2.195c0.22-0.752,0.465-1.484,0.73-2.194h17.689
			C515.223,78.083,514.357,79.678,513.516,81.274z"/>
		<path fill="#FFFFFF" d="M565.053,155.222h-39.5v-13.167h8.645c0.619,0,1.24-0.066,1.861-0.199c0.62-0.133,1.241-0.287,1.863-0.466
			c2.659-0.975,5.074-2.593,7.248-4.854c2.172-2.261,3.258-4.676,3.258-7.249c0-1.417-0.444-2.415-1.33-2.992
			c-0.887-0.576-1.951-0.865-3.191-0.865c-1.775,0-3.77,0.688-5.984,2.062c-2.219,1.376-4.479,3.259-6.783,5.652
			c-0.18,0.266-0.399,0.555-0.666,0.865c-0.266,0.312-0.531,0.599-0.797,0.864c-2.573,3.016-5.055,6.497-7.449,10.441
			c-2.394,3.946-4.345,8.179-5.852,12.701l-11.172,34.713l-12.502-4.123l14.896-46.018c1.15-3.635,1.949-6.871,2.394-9.709
			c0.442-2.837,0.665-5.364,0.665-7.581c0-1.684-0.09-3.213-0.266-4.588c-0.18-1.374-0.399-2.594-0.666-3.658
			c-0.089-0.353-0.155-0.708-0.199-1.064c-0.045-0.354-0.111-0.665-0.199-0.931c-0.09-0.442-0.156-0.731-0.199-0.864
			c-0.046-0.133-0.112-0.243-0.199-0.333l12.9-2.793c0.177,0.445,0.266,0.798,0.266,1.064c0.088,0.445,0.178,0.887,0.267,1.33
			c0.087,0.444,0.177,0.931,0.266,1.463c0.267,0.977,0.486,2.062,0.665,3.258c0.177,1.197,0.311,2.506,0.399,3.924
			c2.837-2.748,6.005-5.075,9.509-6.983c3.502-1.905,7.16-2.859,10.973-2.859c0.975,0,1.949,0.066,2.926,0.2
			c0.975,0.133,1.949,0.378,2.927,0.731c3.545,1.153,6.36,3.192,8.445,6.118c2.082,2.926,3.126,6.251,3.126,9.975
			c0,2.218-0.379,4.412-1.131,6.583c-0.754,2.174-1.752,4.235-2.992,6.185h11.836L565.053,155.222z"/>
	</g>
</g>
</svg>
