<svg width="393" height="161" viewBox="0 0 393 161" fill="none" xmlns="http://www.w3.org/2000/svg">
<path fill-rule="evenodd" clip-rule="evenodd" d="M353.721 10.6708C357.53 10.6708 361.339 10.6708 365.148 10.6708C365.5 11.3628 366.178 11.1122 366.731 11.246C371.298 12.3489 375.458 14.2615 378.836 17.647C382.131 20.9495 384.079 24.9926 385.081 29.5357C385.146 29.8291 385.157 30.1881 385.609 30.1466C385.609 33.9522 385.609 37.7577 385.609 41.5633C385.15 42.4215 384.814 43.3343 384.546 44.2652C382.764 50.4598 380.976 56.6531 379.239 62.8607C377.869 67.7537 377.015 72.7505 376.734 77.8253C376.586 80.5129 376.761 83.211 377.096 85.8922C377.428 88.5558 377.907 91.1889 378.519 93.7993C379.707 98.8682 381.321 103.809 382.885 108.766C383.85 111.824 384.744 114.904 385.609 117.992C385.609 121.797 385.609 125.603 385.609 129.408C385.493 129.378 385.397 129.417 385.302 129.487C384.834 129.836 384.884 130.392 384.746 130.876C383.116 136.618 380.001 141.271 374.876 144.381C372.157 146.031 369.276 147.321 366.067 147.673C365.642 147.719 365.329 147.947 365.147 148.346C361.428 148.344 357.709 148.341 353.99 148.339C353.706 147.56 353.021 147.796 352.46 147.724C347.962 147.146 343.463 146.57 338.964 145.994C333.918 145.347 328.87 144.698 323.823 144.054C319.083 143.449 314.342 142.849 309.601 142.247C304.816 141.639 300.032 141.028 295.246 140.428C290.395 139.819 285.541 139.231 280.691 138.622C274.851 137.889 269.013 137.15 263.176 136.401C258.217 135.765 253.257 135.138 248.304 134.458C242.867 133.712 237.425 133.021 231.96 132.522C225.238 131.91 218.505 131.486 211.76 131.279C205.743 131.094 199.726 131.01 193.704 131.074C186.511 131.15 179.331 131.464 172.163 132.079C166.761 132.542 161.371 133.11 155.991 133.784C151.03 134.406 146.075 135.069 141.117 135.716C135.457 136.455 129.799 137.211 124.138 137.933C118.893 138.602 113.642 139.232 108.395 139.888C103.587 140.49 98.7798 141.102 93.9732 141.713C89.2771 142.31 84.5804 142.911 79.8849 143.516C75.2338 144.115 70.5833 144.722 65.9328 145.325C62.0067 145.835 58.0837 146.372 54.1415 146.755C51.0804 147.051 48.0314 147.451 45.0807 148.391C41.2277 148.386 37.3742 148.382 33.5206 148.377C33.2933 147.932 32.8951 147.751 32.436 147.718C31.8555 147.676 31.3083 147.501 30.7587 147.337C22.0401 144.731 16.4591 139.044 14.1981 130.097C14.1435 129.88 14.1037 129.62 13.8931 129.523C13.5174 129.349 13.57 129.036 13.57 128.729C13.57 125.238 13.5752 121.746 13.5643 118.256C13.5623 117.733 13.6497 117.243 13.8057 116.748C15.8548 110.261 17.8802 103.766 19.9422 97.2836C21.4056 92.6827 22.3548 87.991 22.4665 83.15C22.6065 77.1177 21.746 71.1938 20.2799 65.3705C18.5307 58.4228 16.454 51.5648 14.4569 44.6859C13.8539 42.6078 13.4692 40.5473 13.5482 38.3686C13.642 35.7764 13.5713 33.1777 13.5694 30.5822C13.5694 30.1213 13.4994 29.6558 14.0208 29.3721C14.2366 29.2546 14.2552 28.956 14.3015 28.7132C14.4819 27.766 14.7908 26.8578 15.1369 25.9632C18.3625 17.6321 24.4854 12.9352 33.0865 11.3446C33.4679 11.2739 33.8828 11.1992 33.92 10.6721C37.5071 10.6721 41.0948 10.6721 44.6819 10.6721C44.6973 11.1492 45.08 11.159 45.3908 11.1992C49.2746 11.6978 53.159 12.1873 57.0441 12.6735C62.9275 13.4091 68.8116 14.1342 74.6944 14.8737C80.2041 15.5663 85.7119 16.2766 91.2216 16.9718C97.412 17.7528 103.604 18.5221 109.793 19.3038C116.356 20.1328 122.918 20.965 129.479 21.8057C136.194 22.6659 142.912 23.4969 149.619 24.4168C157.863 25.5477 166.121 26.5208 174.425 27.0954C182.064 27.6245 189.712 27.901 197.367 27.9692C206.33 28.0497 215.288 27.8757 224.23 27.1733C228.553 26.8337 232.872 26.439 237.179 25.9379C241.771 25.4042 246.359 24.829 250.945 24.2415C255.487 23.6598 260.023 23.0321 264.563 22.4413C269.653 21.7791 274.744 21.1286 279.836 20.4859C284.379 19.9127 288.925 19.3615 293.469 18.7915C298.232 18.1949 302.995 17.5912 307.757 16.9835C312.431 16.3876 317.105 15.7871 321.778 15.1814C326.428 14.5789 331.076 13.9499 335.728 13.3662C340.227 12.8014 344.735 12.3087 349.231 11.7231C350.752 11.5238 352.283 11.2758 353.721 10.6708Z" fill="#F44A40"/>
<path d="M84.3561 79.8313C80.7119 82.2204 76.8686 84.0485 72.8262 85.3138C73.7362 86.235 74.5774 87.2717 75.3461 88.4221C76.1147 89.5744 76.7832 90.8118 77.3528 92.1348H87.0038L84.1853 100.683H71.8013C71.7442 100.51 71.6864 100.352 71.6305 100.208C71.5734 100.065 71.5156 99.9057 71.4597 99.7336C70.0932 96.4526 68.4557 93.6468 66.5491 91.3149C64.6407 88.9836 61.2963 87.7612 56.5142 87.6457L59.2472 79.0114C60.0441 78.9549 60.8551 78.8822 61.6816 78.7959C62.5061 78.7095 63.3178 78.6095 64.116 78.4933C68.4422 77.8026 72.5995 76.5373 76.5854 74.6943C80.5706 72.8531 83.7596 70.0032 86.151 66.1463C86.2646 65.9736 86.3783 65.7873 86.4926 65.5854C86.6063 65.3842 86.7193 65.1686 86.8342 64.9375C87.005 64.6499 87.1611 64.3481 87.3036 64.0313C87.4456 63.7157 87.6029 63.4132 87.7737 63.125C87.9445 62.7231 88.0723 62.3343 88.1577 61.9597C88.2431 61.5857 88.2861 61.2254 88.2861 60.8801C88.229 60.3055 88.0299 59.8154 87.6883 59.4122C87.3467 59.0104 86.7488 58.7793 85.8948 58.7215C84.4711 58.6066 82.763 58.8663 80.7703 59.4986C78.7771 60.1328 76.4705 61.2254 73.8524 62.7796C68.2155 66.2333 63.2189 70.6517 58.8638 76.0335C54.5081 81.4167 50.4509 86.9854 46.693 92.7412C45.8389 94.0662 44.9984 95.3892 44.1732 96.7129C43.3474 98.038 42.5081 99.3617 41.654 100.685H32.0872C34.763 96.2527 37.3824 91.6622 39.9446 86.9134C42.5068 82.1645 44.7556 77.3722 46.6917 72.537C47.0334 71.7313 47.3602 70.9263 47.6736 70.1194C47.9857 69.3137 48.2849 68.5087 48.57 67.7018C49.1961 65.9749 49.7227 64.3922 50.1497 62.9529C50.5768 61.515 50.8189 60.2478 50.876 59.1539C50.876 58.8085 50.8041 58.5644 50.6622 58.4203C50.519 58.2774 50.1928 58.2041 49.6797 58.2041H40.7987L43.5317 49.6562H48.4853C51.5028 49.6562 54.1221 50.232 56.3427 51.383C58.5633 52.5347 59.531 55.2977 59.2465 59.6719C59.2465 60.3627 59.1746 61.0683 59.0327 61.7876C58.8901 62.5082 58.7046 63.299 58.4779 64.1617C59.2748 63.4145 60.1565 62.6076 61.1255 61.7441C62.0926 60.8807 63.1457 60.0173 64.2855 59.1539C66.2781 57.6575 68.4281 56.2052 70.7341 54.7939C73.0401 53.3838 75.3891 52.2464 77.7805 51.3837C79.032 50.9812 80.2849 50.6494 81.5384 50.3904C82.7906 50.1314 84.0152 50.0015 85.2109 50.0015C86.691 50.0015 88.1147 50.2177 89.4812 50.6494C90.8477 51.0811 92.0993 51.8154 93.2391 52.8515C94.4907 53.8876 95.3743 55.0685 95.8867 56.3915C96.3992 57.7165 96.6554 59.0974 96.6554 60.536C96.6554 60.8814 96.6413 61.2131 96.613 61.5293C96.5841 61.8461 96.5411 62.1486 96.4852 62.4355C96.2572 63.9332 95.8578 65.3861 95.2895 66.7955C94.7199 68.2069 94.0367 69.515 93.2397 70.7244C90.9607 74.4067 87.9997 77.4436 84.3561 79.8313Z" fill="white"/>
<path d="M117.921 100.769H109.637C108.725 100.769 107.899 100.626 107.16 100.337C106.419 100.05 105.736 99.6765 105.11 99.215C104.256 99.733 103.33 100.165 102.335 100.51C101.338 100.855 100.355 101.085 99.3883 101.201C99.0467 101.257 98.7051 101.301 98.3635 101.331C98.0218 101.359 97.6802 101.374 97.3386 101.374C95.5727 101.374 93.9075 100.97 92.342 100.165C90.7757 99.3591 89.537 98.0639 88.6264 96.2793C88.2848 95.5321 88.0286 94.7978 87.8578 94.0772C87.687 93.3586 87.6016 92.6243 87.6016 91.8758C87.6016 90.3794 87.8854 88.9265 88.4556 87.5152C89.0239 86.1058 89.765 84.7957 90.6762 83.5869C93.5229 79.7313 97.0669 77.0112 101.309 75.4278C105.55 73.8451 109.949 72.9966 114.505 72.8804C114.676 72.8804 114.86 72.8804 115.06 72.8804C115.259 72.8804 115.472 72.8804 115.7 72.8804V81.4283C113.877 81.4283 112.071 81.5445 110.277 81.7737C108.484 82.0042 106.761 82.4359 105.11 83.0689C103.629 83.5869 102.234 84.3075 100.925 85.2274C99.6144 86.1486 98.4765 87.2711 97.5088 88.5948C97.4516 88.711 97.3662 88.8538 97.2525 89.0265C97.1376 89.1992 97.0246 89.4017 96.9109 89.6309C96.796 89.8036 96.6971 89.9763 96.6117 90.149C96.5263 90.3217 96.4261 90.5242 96.3131 90.7534C96.2559 90.9261 96.1981 91.1286 96.1422 91.3578C96.0851 91.5882 96.0568 91.7895 96.0568 91.9622C96.0568 92.1926 96.1422 92.4088 96.3131 92.6101C96.4839 92.8126 96.7677 92.9119 97.1671 92.9119C99.3877 92.9119 101.038 92.1647 102.121 90.667C103.201 89.1706 104.056 87.5301 104.683 85.7455C104.796 85.3436 104.91 84.9684 105.025 84.623C105.138 84.2777 105.252 83.9323 105.366 83.5869L113.394 86.2635L111.515 92.2212H120.654L117.921 100.769Z" fill="white"/>
<path d="M146.703 100.769H127.742C126.148 100.769 124.668 100.41 123.301 99.6895C121.935 98.9708 120.88 97.8912 120.141 96.452C119.799 95.7612 119.557 95.0568 119.415 94.3369C119.272 93.6176 119.202 92.884 119.202 92.1348C119.202 90.6969 119.415 89.2855 119.842 87.904C120.269 86.5226 120.767 85.2274 121.337 84.0186C121.337 83.9621 121.351 83.9186 121.38 83.8888C121.407 83.8609 121.422 83.8174 121.422 83.7596C122.959 80.7675 125.279 78.0324 128.382 75.557C131.485 73.083 134.773 71.8443 138.247 71.8443C138.36 71.8443 138.461 71.8443 138.546 71.8443C138.631 71.8443 138.73 71.8443 138.844 71.8443C138.9 71.9021 138.986 71.9306 139.101 71.9306C139.214 71.9306 139.328 71.9306 139.442 71.9306C141.606 72.1611 143.371 72.9668 144.738 74.3482C146.104 75.7297 146.787 77.4858 146.787 79.6151C146.787 79.6729 146.787 79.7599 146.787 79.8742C146.787 79.9904 146.787 80.0767 146.787 80.1332C146.787 80.2494 146.773 80.3494 146.745 80.4357C146.715 80.5221 146.703 80.6233 146.703 80.7376L146.276 84.5367H137.735L138.162 80.3922C136.51 80.5084 134.945 81.1693 133.464 82.3781C131.983 83.5869 130.788 84.9119 129.877 86.3499C129.707 86.6388 129.549 86.8978 129.408 87.127C129.265 87.3574 129.137 87.5879 129.023 87.8177C129.023 87.8755 128.951 88.0631 128.809 88.3786C128.667 88.6954 128.511 89.0843 128.34 89.5439C128.283 89.6017 128.24 89.6737 128.212 89.7601C128.183 89.8464 128.14 89.9191 128.084 89.9763C127.969 90.3801 127.856 90.7683 127.742 91.1416C127.627 91.5168 127.571 91.7895 127.571 91.9622C127.571 92.0199 127.585 92.0784 127.614 92.1348C127.641 92.1926 127.684 92.2212 127.742 92.2212H149.52L146.703 100.769Z" fill="white"/>
<path d="M167.627 87.127L169.762 92.0485C169.875 92.1063 170.031 92.1498 170.231 92.1783C170.43 92.2082 170.643 92.2212 170.872 92.2212H177.192L174.374 100.769H170.872C170.815 100.769 170.744 100.769 170.658 100.769C170.573 100.769 170.501 100.769 170.444 100.769C168.792 100.713 167.199 100.309 165.662 99.5603C164.124 98.8131 162.985 97.5744 162.245 95.8476L160.025 90.7534L156.779 100.769H147.897L164.893 47.6683H173.775L163.612 79.5288L175.056 70.8945L180.095 77.8019L167.627 87.127Z" fill="white"/>
<path d="M187.099 57.5977H178.985L184.366 47.6683H192.394L187.099 57.5977Z" fill="white"/>
<path d="M208.278 100.769H189.66C188.123 100.769 186.684 100.439 185.347 99.7765C184.009 99.115 182.969 98.0925 182.23 96.711C181.888 96.078 181.632 95.3873 181.461 94.6388C181.29 93.8916 181.205 93.1424 181.205 92.3939C181.205 92.2212 181.218 92.0349 181.247 91.8323C181.275 91.6311 181.29 91.4155 181.29 91.1851C181.403 90.0341 181.645 88.8688 182.015 87.6879C182.385 86.5089 182.769 85.4293 183.169 84.4503C184.364 81.6874 185.83 79.399 187.567 77.5858C189.303 75.7726 191.112 74.406 192.99 73.4848C193.787 73.0252 194.57 72.6642 195.339 72.4052C196.107 72.1462 196.861 71.9599 197.602 71.8443C197.943 71.7878 198.285 71.7443 198.627 71.7145C198.968 71.6865 199.338 71.6716 199.737 71.6716C202.071 71.6716 204.148 72.3344 205.972 73.6575C207.793 74.9825 208.705 76.8236 208.705 79.1834C208.705 79.645 208.662 80.1196 208.577 80.6084C208.491 81.0979 208.334 81.6309 208.107 82.2054C207.65 83.6447 206.711 85.2138 205.288 86.9114C203.865 88.6097 201.872 90.3801 199.31 92.2212H211.096L208.278 100.769ZM194.528 82.4645C192.991 83.9621 191.851 85.602 191.112 87.386C191.112 87.4438 191.097 87.4873 191.07 87.5152C191.04 87.545 191.027 87.5879 191.027 87.645C193.645 86.0908 195.653 84.6665 197.048 83.3714C198.443 82.0762 199.397 80.9687 199.91 80.0469C197.859 80.1631 196.066 80.9687 194.528 82.4645Z" fill="white"/>
<path d="M258.156 100.769H252.348C250.241 100.769 248.533 100.078 247.225 98.6969C245.914 97.3154 245.26 95.6463 245.26 93.689C245.26 93.2865 245.303 92.8684 245.388 92.4367C245.473 92.005 245.572 91.5882 245.687 91.1851C246.028 90.034 246.37 88.8967 246.711 87.7742C247.054 86.6517 247.422 85.5442 247.822 84.4503C247.878 84.2776 247.935 84.1199 247.993 83.9758C248.048 83.8323 248.079 83.7031 248.079 83.5869C248.192 83.2993 248.306 82.9974 248.42 82.6806C248.533 82.3651 248.59 82.0626 248.59 81.7744C248.079 81.947 247.523 82.2353 246.925 82.6378C246.327 83.0409 245.715 83.5304 245.089 84.1056C243.495 85.4871 241.985 87.1276 240.562 89.0271C239.138 90.9267 238.029 92.884 237.231 94.8984C236.89 95.8196 236.576 96.7843 236.292 97.7912C236.007 98.7988 235.722 99.7921 235.438 100.77H226.47C226.697 100.079 226.911 99.3753 227.11 98.6547C227.31 97.9354 227.523 97.2018 227.751 96.4526C227.978 95.7054 228.221 94.9712 228.477 94.2505C228.733 93.5319 229.003 92.8262 229.289 92.1355C229.46 91.5025 229.644 90.8702 229.843 90.2359C230.043 89.603 230.256 88.9408 230.484 88.2501C230.711 87.6171 230.925 86.9841 231.125 86.3505C231.323 85.7175 231.537 85.0852 231.765 84.451C231.821 84.3361 231.863 84.2212 231.893 84.1056C231.921 83.9907 231.936 83.8764 231.936 83.7602C232.049 83.4726 232.149 83.1558 232.235 82.8105C232.32 82.4651 232.391 82.1197 232.448 81.7744C231.991 81.947 231.451 82.2353 230.826 82.6378C230.198 83.0409 229.572 83.5304 228.946 84.1056C227.352 85.5449 225.829 87.186 224.377 89.0271C222.925 90.8702 221.857 92.8262 221.175 94.8984L219.296 100.77H210.499L219.381 72.7947H228.349L227.666 74.6942C228.349 74.2924 229.075 73.9607 229.844 73.7016C230.613 73.4426 231.395 73.2271 232.193 73.0537C232.42 73.0537 232.676 73.0401 232.962 73.0109C233.245 72.9823 233.502 72.968 233.73 72.968C235.039 72.968 236.235 73.2563 237.317 73.8315C238.398 74.408 239.309 75.3856 240.05 76.7671C240.05 76.8249 240.078 76.8833 240.136 76.9398C240.136 76.9976 240.163 77.056 240.221 77.1125C241.701 75.9037 243.239 74.8974 244.833 74.0905C246.426 73.2849 248.021 72.8817 249.616 72.8817C250.071 72.8817 250.541 72.9245 251.025 73.0115C251.508 73.0979 251.978 73.2277 252.434 73.4004C254.142 74.0912 255.323 75.1136 255.979 76.4653C256.633 77.8182 256.961 79.3009 256.961 80.9122C256.961 82.0068 256.861 83.0708 256.662 84.1069C256.461 85.143 256.192 86.1506 255.85 87.1289C255.679 87.532 255.522 87.9488 255.381 88.3805C255.237 88.8123 255.11 89.2303 254.996 89.6328C254.881 90.0938 254.753 90.5255 254.611 90.928C254.468 91.3318 254.34 91.7635 254.227 92.2231H260.888L258.156 100.769Z" fill="white"/>
<path d="M332.758 52.7626C332.216 53.7987 331.661 54.8646 331.092 55.9572C330.921 56.2461 330.751 56.548 330.58 56.8635C330.409 57.1803 330.266 57.4828 330.153 57.7698C329.696 58.5183 329.27 59.296 328.872 60.101C328.473 60.908 328.131 61.713 327.847 62.5186C326.993 64.994 326.167 67.47 325.37 69.9441C324.572 72.4195 323.775 74.8656 322.978 77.2832C322.75 78.1467 322.509 78.9815 322.252 79.7872C321.997 80.5941 321.726 81.4277 321.441 82.2911C320.929 83.9031 320.416 85.5286 319.904 87.1698C319.391 88.8103 318.878 90.4658 318.366 92.1342H326.735L324.259 100.682H317.17C315.405 100.682 313.839 100.108 312.473 98.9553C311.107 97.8049 310.223 96.3948 309.825 94.7245C307.946 96.5675 305.939 98.0204 303.804 99.0851C301.669 100.151 299.349 100.682 296.844 100.682C292.459 100.682 289.399 99.5168 287.662 97.1849C285.925 94.8537 285.057 91.8466 285.057 88.1624C285.057 84.7087 285.583 81.2985 286.637 77.9311C287.691 74.5638 288.843 71.2392 290.096 67.9582C290.494 66.9221 290.892 65.9009 291.292 64.8934C291.689 63.8871 292.06 62.8647 292.402 61.8279C292.8 60.6775 293.085 59.7992 293.256 59.1941C293.427 58.5897 293.512 58.1729 293.512 57.9425C293.512 57.8276 293.497 57.7263 293.469 57.6399C293.44 57.5536 293.369 57.5108 293.256 57.5108C292.685 57.2809 292.089 57.1089 291.463 56.9927C290.835 56.8778 290.209 56.7629 289.583 56.6473C289.468 56.5909 289.369 56.561 289.284 56.561C289.198 56.561 289.098 56.5324 288.985 56.4746C288.586 56.4182 288.187 56.3597 287.79 56.302C287.391 56.2455 286.991 56.1591 286.594 56.0429L288.302 47.754C288.699 47.8118 289.098 47.8839 289.498 47.9702C289.895 48.0566 290.295 48.1299 290.693 48.1864C290.806 48.1864 290.935 48.2013 291.077 48.2299C291.219 48.2591 291.347 48.2727 291.463 48.2727C292.201 48.3889 292.97 48.5318 293.768 48.7045C294.565 48.8771 295.334 49.1076 296.075 49.3952C298.351 50.2021 299.917 51.2947 300.771 52.6762C301.625 54.0577 302.052 55.584 302.052 57.2524C302.052 58.1158 301.967 58.9942 301.796 59.8855C301.625 60.7788 301.397 61.6851 301.114 62.6056C300.886 63.2399 300.658 63.8871 300.431 64.548C300.203 65.2108 299.974 65.8867 299.748 66.5767C299.577 66.9221 299.419 67.2675 299.278 67.6129C299.135 67.9582 299.007 68.3036 298.894 68.649C298.666 69.2832 298.409 69.959 298.125 70.6777C297.84 71.3983 297.555 72.1319 297.271 72.8798C296.986 73.7432 296.687 74.6066 296.374 75.47C296.061 76.3335 295.763 77.2268 295.478 78.1467C294.908 79.9313 294.438 81.6867 294.069 83.4136C293.699 85.1404 293.514 86.7245 293.514 88.1624C293.514 89.3147 293.756 90.2645 294.241 91.0117C294.724 91.7603 295.592 92.1342 296.846 92.1342C300.83 92.1342 304.432 89.4147 307.649 83.9751C310.865 78.5355 313.954 72.5642 316.916 66.0587C317.03 65.7711 317.158 65.4971 317.301 65.2381C317.442 64.9791 317.571 64.7064 317.685 64.4182C317.799 64.1884 317.899 63.9728 317.984 63.7703C318.07 63.569 318.168 63.3814 318.284 63.2087C318.567 62.5758 318.852 61.9571 319.138 61.3527C319.422 60.7483 319.678 60.1303 319.906 59.4966C320.361 58.4034 320.76 57.3095 321.101 56.2156C321.443 55.123 321.755 54.0285 322.041 52.9346C322.097 52.8781 322.14 52.8054 322.169 52.7191C322.197 52.6327 322.211 52.5613 322.211 52.5029C322.325 52.0426 322.453 51.568 322.596 51.0779C322.738 50.5897 322.895 50.1145 323.065 49.6536H334.424C333.854 50.691 333.298 51.7264 332.758 52.7626Z" fill="white"/>
<path d="M365.853 100.769H340.487V92.2212H346.039C346.436 92.2212 346.835 92.1783 347.234 92.092C347.632 92.0056 348.031 91.9057 348.43 91.7895C350.138 91.1565 351.689 90.1061 353.085 88.6383C354.479 87.1704 355.177 85.6026 355.177 83.9323C355.177 83.0124 354.892 82.3645 354.323 81.9899C353.753 81.6159 353.07 81.4283 352.274 81.4283C351.134 81.4283 349.853 81.875 348.431 82.767C347.006 83.6603 345.555 84.8827 344.075 86.4362C343.96 86.6089 343.819 86.7965 343.648 86.9978C343.477 87.2003 343.307 87.3866 343.136 87.5587C341.483 89.5166 339.89 91.7765 338.352 94.3369C336.815 96.8986 335.562 99.6466 334.594 102.582L327.42 125.118L319.392 122.441L328.958 92.5665C329.696 90.2067 330.209 88.1059 330.495 86.2635C330.779 84.4218 330.922 82.7812 330.922 81.342C330.922 80.2487 330.864 79.2561 330.751 78.3635C330.636 77.4715 330.495 76.6795 330.323 75.9887C330.266 75.7596 330.224 75.5291 330.196 75.298C330.167 75.0682 330.124 74.8663 330.068 74.6936C330.01 74.4067 329.968 74.219 329.94 74.1327C329.911 74.0464 329.868 73.9749 329.812 73.9165L338.096 72.1033C338.21 72.3922 338.267 72.6214 338.267 72.7941C338.323 73.0829 338.381 73.3699 338.438 73.6575C338.494 73.9457 338.552 74.2619 338.609 74.6073C338.781 75.2415 338.921 75.9459 339.036 76.7223C339.15 77.4994 339.236 78.3492 339.292 79.2698C341.114 77.4858 343.149 75.9751 345.399 74.7364C347.648 73.4997 349.997 72.8804 352.445 72.8804C353.071 72.8804 353.697 72.9232 354.324 73.0102C354.95 73.0966 355.576 73.2556 356.204 73.4848C358.48 74.2333 360.288 75.557 361.627 77.4566C362.964 79.3561 363.634 81.5147 363.634 83.9323C363.634 85.3722 363.391 86.7965 362.908 88.2059C362.424 89.6173 361.783 90.9552 360.986 92.2212H368.587L365.853 100.769Z" fill="white"/>
</svg>
