<?xml version="1.0" encoding="utf-8"?>
<!-- Generator: Adobe Illustrator 16.0.0, SVG Export Plug-In . SVG Version: 6.00 Build 0)  -->
<!DOCTYPE svg PUBLIC "-//W3C//DTD SVG 1.1//EN" "http://www.w3.org/Graphics/SVG/1.1/DTD/svg11.dtd">
<svg version="1.1" id="Layer_1" xmlns="http://www.w3.org/2000/svg" xmlns:xlink="http://www.w3.org/1999/xlink" x="0px" y="0px"
	 width="282px" height="292px" viewBox="0 0 282 292" enable-background="new 0 0 282 292" xml:space="preserve">
<g>
	<g>
		<path fill-rule="evenodd" clip-rule="evenodd" fill="none" d="M-8,297C-8,197-8,97-8-3C92-3,192-3,292-3c0,100,0,200,0,300
			C192,297,92,297-8,297z M142.082,271.85c69.124-0.06,124.74-55.832,124.792-124.928c0.053-69.772-57.563-126.174-127.452-124.791
			C71.803,23.47,15.508,79.684,17.161,150.08C18.733,217.051,73.67,272.027,142.082,271.85z"/>
		<path fill-rule="evenodd" clip-rule="evenodd" d="M142.082,271.85C73.67,272.027,18.733,217.051,17.161,150.08
			C15.508,79.684,71.803,23.47,139.422,22.132c69.89-1.383,127.505,55.019,127.452,124.791
			C266.822,216.018,211.206,271.79,142.082,271.85z M26.157,146.877c-0.121,63.537,52.02,115.844,115.595,115.966
			c63.594,0.122,116.004-52.008,116.092-115.472C257.932,83.453,205.873,31.227,142,31.157
			C78.483,31.087,26.277,83.237,26.157,146.877z"/>
		<path fill-rule="evenodd" clip-rule="evenodd" fill="none" d="M26.157,146.877C26.277,83.237,78.483,31.087,142,31.157
			c63.873,0.07,115.932,52.296,115.844,116.214c-0.088,63.464-52.498,115.594-116.092,115.472
			C78.176,262.721,26.036,210.414,26.157,146.877z M102.445,198.558c17.895,1.383,37.08,2.855,56.264,4.359
			c3.121,0.245,5.04-0.663,6.537-3.841c8.93-18.962,18.161-37.783,27.269-56.662c4.456-9.237,8.862-18.497,13.382-27.935
			c-9.369-0.549-9.308-0.52-13.015,7.221c-8.767,18.305-18.124,36.352-26.169,54.967c-3.812,8.82-9.993,12.602-18.49,14.601
			c-14.111,3.322-28.15,2.229-42.1-0.693c-7.662-1.605-15.173-3.934-22.752-5.936c0.786-1.158,1.266-1.195,1.737-1.152
			c17.278,1.575,34.542,2.534,51.769-0.656c10.501-1.944,18.514-6.207,23.074-17.086c12.535-29.904,25.975-59.43,39.026-89.118
			c0.419-0.953,0.523-2.043,0.894-3.556c-1.688,0.332-2.807,0.476-3.882,0.773c-24.907,6.905-49.865,13.387-76.126,11.508
			c-1.417-0.101-3.658,1.49-4.373,2.881c-15.226,29.583-30.243,59.274-45.442,88.87c-1.658,3.228-1.008,5.448,1.104,8.019
			c7.467,9.09,16.912,15.496,27.447,20.366c23.506,10.867,48.557,14.735,74.146,16.162c3.293,0.184,4.171-1.776,5.251-4.177
			c10.779-23.968,21.637-47.903,32.459-71.852c1.628-3.601,3.194-7.229,4.834-10.948c-9.271-1.498-9.311-1.487-12.805,6.138
			c-9.701,21.171-19.529,42.286-28.961,63.576c-1.705,3.85-4.04,5.255-7.787,5.553C143.107,211.735,121.904,206.071,102.445,198.558
			z"/>
		<path fill-rule="evenodd" clip-rule="evenodd" d="M102.445,198.558c19.459,7.513,40.662,13.177,63.291,11.382
			c3.747-0.297,6.082-1.703,7.787-5.553c9.432-21.291,19.26-42.405,28.961-63.576c3.494-7.625,3.534-7.635,12.805-6.138
			c-1.64,3.719-3.206,7.348-4.834,10.948c-10.822,23.949-21.68,47.884-32.459,71.852c-1.08,2.401-1.958,4.36-5.251,4.177
			c-25.589-1.427-50.64-5.295-74.146-16.162c-10.536-4.871-19.98-11.276-27.447-20.366c-2.112-2.571-2.762-4.791-1.104-8.019
			c15.2-29.596,30.217-59.287,45.442-88.87c0.715-1.391,2.956-2.982,4.373-2.881c26.261,1.879,51.219-4.603,76.126-11.508
			c1.075-0.298,2.194-0.442,3.882-0.773c-0.37,1.513-0.475,2.604-0.894,3.556c-13.052,29.688-26.491,59.213-39.026,89.118
			c-4.561,10.88-12.573,15.142-23.074,17.086c-17.227,3.19-34.49,2.231-51.769,0.656c-0.472-0.043-0.951-0.005-1.737,1.152
			c7.579,2.002,15.09,4.33,22.752,5.936c13.949,2.922,27.988,4.015,42.1,0.693c8.497-2,14.679-5.781,18.49-14.601
			c8.045-18.615,17.402-36.662,26.169-54.967c3.707-7.741,3.646-7.771,13.015-7.221c-4.52,9.438-8.926,18.698-13.382,27.935
			c-9.107,18.879-18.339,37.7-27.269,56.662c-1.497,3.178-3.416,4.086-6.537,3.841C139.525,201.414,120.34,199.941,102.445,198.558z
			 M88.454,170.089c17.33,1.426,33.701,2.426,49.961-1.679c3.833-0.968,6.36-2.901,8.022-6.633
			c7.51-16.851,15.282-33.584,22.883-50.395c2.576-5.698,4.928-11.499,7.68-17.952c-2.334,0.308-3.762,0.519-5.195,0.683
			c-14.004,1.604-27.991,3.396-42.025,4.656c-3.43,0.308-5.355,1.232-6.904,4.273c-6.568,12.888-13.402,25.641-20.033,38.497
			C98.066,150.799,93.459,160.144,88.454,170.089z"/>
		<path fill-rule="evenodd" clip-rule="evenodd" fill="none" d="M88.454,170.089c5.005-9.946,9.612-19.291,14.388-28.549
			c6.631-12.856,13.465-25.609,20.033-38.497c1.549-3.041,3.475-3.965,6.904-4.273c14.034-1.261,28.021-3.053,42.025-4.656
			c1.434-0.164,2.861-0.375,5.195-0.683c-2.752,6.453-5.104,12.253-7.68,17.952c-7.601,16.811-15.373,33.544-22.883,50.395
			c-1.662,3.731-4.189,5.665-8.022,6.633C122.155,172.515,105.784,171.515,88.454,170.089z"/>
	</g>
</g>
</svg>
